Rokkitt Light-600.ufo
<glyph name="fj" format="1">
  <advance width="1259"/>
  <unicode hex="0000"/>
  <outline>
    <contour>
      <point x="695" y="-342" type="line"/>
      <point x="791" y="-342" type="line" smooth="yes"/>
      <point x="1095" y="-342"/>
      <point x="1120" y="-184"/>
      <point x="1120" y="47" type="curve" smooth="yes"/>
      <point x="1120" y="804" type="line"/>
      <point x="538" y="804" type="line"/>
      <point x="538" y="664" type="line"/>
      <point x="924" y="664" type="line"/>
      <point x="924" y="-13" type="line" smooth="yes"/>
      <point x="924" y="-134"/>
      <point x="895" y="-186"/>
      <point x="791" y="-186" type="curve" smooth="yes"/>
      <point x="695" y="-186" type="line"/>
    </contour>
    <contour>
      <point x="1006" y="975" type="curve" smooth="yes"/>
      <point x="1081" y="975"/>
      <point x="1133" y="1022"/>
      <point x="1133" y="1093" type="curve" smooth="yes"/>
      <point x="1133" y="1163"/>
      <point x="1081" y="1210"/>
      <point x="1006" y="1210" type="curve" smooth="yes"/>
      <point x="933" y="1210"/>
      <point x="883" y="1163"/>
      <point x="883" y="1093" type="curve" smooth="yes"/>
      <point x="883" y="1022"/>
      <point x="933" y="975"/>
    </contour>
    <component base="f"/>
  </outline>
</glyph>
<glyph name="quotedbl" format="1">
  <advance width="808"/>
  <unicode hex="0022"/>
  <outline>
    <contour>
      <point x="176" y="732" type="line"/>
      <point x="298" y="732" type="line"/>
      <point x="342" y="1222" type="line"/>
      <point x="126" y="1222" type="line"/>
    </contour>
    <contour>
      <point x="510" y="732" type="line"/>
      <point x="631" y="732" type="line"/>
      <point x="676" y="1222" type="line"/>
      <point x="460" y="1222" type="line"/>
    </contour>
  </outline>
</glyph>
<glyph name="numbersign" format="1">
  <advance width="1226"/>
  <unicode hex="0023"/>
  <outline>
    <contour>
      <point x="223" y="-11" type="line"/>
      <point x="371" y="-11" type="line"/>
      <point x="429" y="336" type="line"/>
      <point x="711" y="336" type="line"/>
      <point x="654" y="-11" type="line"/>
      <point x="803" y="-11" type="line"/>
      <point x="861" y="336" type="line"/>
      <point x="1107" y="336" type="line"/>
      <point x="1127" y="470" type="line"/>
      <point x="888" y="470" type="line"/>
      <point x="934" y="758" type="line"/>
      <point x="1139" y="758" type="line"/>
      <point x="1159" y="893" type="line"/>
      <point x="960" y="893" type="line"/>
      <point x="1020" y="1239" type="line"/>
      <point x="869" y="1239" type="line"/>
      <point x="810" y="893" type="line"/>
      <point x="531" y="893" type="line"/>
      <point x="589" y="1239" type="line"/>
      <point x="439" y="1239" type="line"/>
      <point x="381" y="893" type="line"/>
      <point x="142" y="893" type="line"/>
      <point x="122" y="758" type="line"/>
      <point x="353" y="758" type="line"/>
      <point x="307" y="470" type="line"/>
      <point x="108" y="470" type="line"/>
      <point x="88" y="336" type="line"/>
      <point x="279" y="336" type="line"/>
    </contour>
    <contour>
      <point x="456" y="470" type="line"/>
      <point x="502" y="758" type="line"/>
      <point x="783" y="758" type="line"/>
      <point x="737" y="470" type="line"/>
    </contour>
  </outline>
</glyph>
<glyph name="dollar" format="1">
  <advance width="1064"/>
  <unicode hex="0024"/>
  <outline>
    <contour>
      <point x="513" y="-164" type="line"/>
      <point x="590" y="-164" type="line"/>
      <point x="590" y="1336" type="line"/>
      <point x="513" y="1336" type="line"/>
    </contour>
    <component base="S"/>
  </outline>
</glyph>
<glyph name="percent" format="1">
  <advance width="1712"/>
  <unicode hex="0025"/>
  <outline>
    <contour>
      <point x="417" y="694" type="curve" smooth="yes"/>
      <point x="317" y="695"/>
      <point x="241" y="774"/>
      <point x="241" y="880" type="curve" smooth="yes"/>
      <point x="241" y="985"/>
      <point x="317" y="1063"/>
      <point x="417" y="1064" type="curve" smooth="yes"/>
      <point x="519" y="1063"/>
      <point x="595" y="985"/>
      <point x="595" y="880" type="curve" smooth="yes"/>
      <point x="595" y="774"/>
      <point x="519" y="695"/>
    </contour>
    <contour>
      <point x="417" y="579" type="curve" smooth="yes"/>
      <point x="596" y="579"/>
      <point x="730" y="708"/>
      <point x="730" y="880" type="curve" smooth="yes"/>
      <point x="730" y="1050"/>
      <point x="596" y="1177"/>
      <point x="417" y="1177" type="curve" smooth="yes"/>
      <point x="239" y="1177"/>
      <point x="106" y="1050"/>
      <point x="106" y="880" type="curve" smooth="yes"/>
      <point x="106" y="708"/>
      <point x="239" y="579"/>
    </contour>
    <contour>
      <point x="391" y="-66" type="line"/>
      <point x="1420" y="1165" type="line"/>
      <point x="1330" y="1242" type="line"/>
      <point x="297" y="17" type="line"/>
    </contour>
    <contour>
      <point x="1291" y="93" type="curve" smooth="yes"/>
      <point x="1191" y="94"/>
      <point x="1115" y="173"/>
      <point x="1115" y="279" type="curve" smooth="yes"/>
      <point x="1115" y="384"/>
      <point x="1191" y="462"/>
      <point x="1291" y="463" type="curve" smooth="yes"/>
      <point x="1393" y="462"/>
      <point x="1469" y="384"/>
      <point x="1469" y="279" type="curve" smooth="yes"/>
      <point x="1469" y="173"/>
      <point x="1393" y="94"/>
    </contour>
    <contour>
      <point x="1291" y="-22" type="curve" smooth="yes"/>
      <point x="1470" y="-22"/>
      <point x="1604" y="107"/>
      <point x="1604" y="279" type="curve" smooth="yes"/>
      <point x="1604" y="449"/>
      <point x="1470" y="576"/>
      <point x="1291" y="576" type="curve" smooth="yes"/>
      <point x="1113" y="576"/>
      <point x="980" y="449"/>
      <point x="980" y="279" type="curve" smooth="yes"/>
      <point x="980" y="107"/>
      <point x="1113" y="-22"/>
    </contour>
  </outline>
</glyph>
<glyph name="ampersand" format="1">
  <advance width="1350"/>
  <unicode hex="0026"/>
  <outline>
    <contour>
      <point x="499" y="-19" type="curve" smooth="yes"/>
      <point x="636" y="-19"/>
      <point x="756" y="29"/>
      <point x="869" y="125" type="curve"/>
      <point x="964" y="0" type="line"/>
      <point x="1270" y="0" type="line"/>
      <point x="1270" y="149" type="line"/>
      <point x="1077" y="149" type="line"/>
      <point x="990" y="259" type="line"/>
      <point x="1048" y="325"/>
      <point x="1094" y="407"/>
      <point x="1130" y="513" type="curve"/>
      <point x="1269" y="514" type="line"/>
      <point x="1269" y="661" type="line"/>
      <point x="1006" y="661" type="line"/>
      <point x="983" y="562"/>
      <point x="948" y="463"/>
      <point x="887" y="387" type="curve"/>
      <point x="649" y="662" type="line"/>
      <point x="827" y="741"/>
      <point x="903" y="843"/>
      <point x="903" y="977" type="curve" smooth="yes"/>
      <point x="903" y="1122"/>
      <point x="773" y="1233"/>
      <point x="599" y="1233" type="curve" smooth="yes"/>
      <point x="415" y="1233"/>
      <point x="277" y="1119"/>
      <point x="277" y="964" type="curve" smooth="yes"/>
      <point x="277" y="878"/>
      <point x="318" y="799"/>
      <point x="390" y="708" type="curve"/>
      <point x="187" y="630"/>
      <point x="70" y="517"/>
      <point x="70" y="352" type="curve" smooth="yes"/>
      <point x="70" y="140"/>
      <point x="252" y="-19"/>
    </contour>
    <contour>
      <point x="532" y="145" type="curve" smooth="yes"/>
      <point x="381" y="145"/>
      <point x="271" y="247"/>
      <point x="271" y="363" type="curve" smooth="yes"/>
      <point x="271" y="465"/>
      <point x="343" y="541"/>
      <point x="483" y="595" type="curve"/>
      <point x="771" y="249" type="line"/>
      <point x="698" y="177"/>
      <point x="619" y="145"/>
    </contour>
    <contour>
      <point x="560" y="779" type="curve"/>
      <point x="492" y="866"/>
      <point x="458" y="921"/>
      <point x="458" y="971" type="curve" smooth="yes"/>
      <point x="458" y="1048"/>
      <point x="517" y="1094"/>
      <point x="598" y="1094" type="curve" smooth="yes"/>
      <point x="677" y="1094"/>
      <point x="736" y="1045"/>
      <point x="736" y="967" type="curve" smooth="yes"/>
      <point x="736" y="890"/>
      <point x="678" y="835"/>
    </contour>
  </outline>
</glyph>
<glyph name="parenleft" format="1">
  <advance width="595"/>
  <unicode hex="0028"/>
  <outline>
    <contour>
      <point x="501" y="-129" type="curve"/>
      <point x="501" y="2" type="line"/>
      <point x="383" y="72"/>
      <point x="323" y="306"/>
      <point x="323" y="531" type="curve" smooth="yes"/>
      <point x="323" y="755"/>
      <point x="383" y="990"/>
      <point x="501" y="1060" type="curve"/>
      <point x="501" y="1188" type="line"/>
      <point x="221" y="1073"/>
      <point x="80" y="795"/>
      <point x="80" y="528" type="curve" smooth="yes"/>
      <point x="80" y="262"/>
      <point x="220" y="-14"/>
    </contour>
  </outline>
</glyph>
<glyph name="parenright" format="1">
  <advance width="595"/>
  <unicode hex="0029"/>
  <outline>
    <contour>
      <point x="111" y="-129" type="line"/>
      <point x="392" y="-14"/>
      <point x="532" y="262"/>
      <point x="532" y="528" type="curve" smooth="yes"/>
      <point x="532" y="795"/>
      <point x="391" y="1073"/>
      <point x="111" y="1188" type="curve"/>
      <point x="111" y="1060" type="line"/>
      <point x="229" y="990"/>
      <point x="289" y="755"/>
      <point x="289" y="531" type="curve" smooth="yes"/>
      <point x="289" y="306"/>
      <point x="229" y="72"/>
      <point x="111" y="2" type="curve"/>
    </contour>
  </outline>
</glyph>
<glyph name="asterisk" format="1">
  <advance width="922"/>
  <unicode hex="002A"/>
  <outline>
    <contour>
      <point x="311" y="434" type="line"/>
      <point x="463" y="747" type="line"/>
      <point x="616" y="434" type="line"/>
      <point x="757" y="534" type="line"/>
      <point x="516" y="777" type="line"/>
      <point x="852" y="824" type="line"/>
      <point x="803" y="991" type="line"/>
      <point x="488" y="830" type="line"/>
      <point x="548" y="1174" type="line"/>
      <point x="380" y="1174" type="line"/>
      <point x="439" y="830" type="line"/>
      <point x="125" y="991" type="line"/>
      <point x="75" y="824" type="line"/>
      <point x="411" y="777" type="line"/>
      <point x="169" y="534" type="line"/>
    </contour>
  </outline>
</glyph>
<glyph name="plus" format="1">
  <advance width="1103"/>
  <unicode hex="002B"/>
  <outline>
    <contour>
      <point x="477" y="181" type="line"/>
      <point x="625" y="181" type="line"/>
      <point x="625" y="544" type="line"/>
      <point x="1005" y="544" type="line"/>
      <point x="1005" y="688" type="line"/>
      <point x="625" y="688" type="line"/>
      <point x="625" y="1058" type="line"/>
      <point x="478" y="1058" type="line"/>
      <point x="477" y="688" type="line"/>
      <point x="99" y="688" type="line"/>
      <point x="99" y="544" type="line"/>
      <point x="477" y="544" type="line"/>
    </contour>
  </outline>
</glyph>
<glyph name="comma" format="1">
  <advance width="520"/>
  <unicode hex="002C"/>
  <outline>
    <contour>
      <point x="260" y="0" type="move" name="_bot"/>
    </contour>
    <contour>
      <point x="136" y="-273" type="line"/>
      <point x="340" y="-270"/>
      <point x="383" y="-176"/>
      <point x="383" y="2" type="curve"/>
      <point x="383" y="244" type="line"/>
      <point x="129" y="244" type="line"/>
      <point x="129" y="0" type="line"/>
      <point x="259" y="0" type="line"/>
      <point x="259" y="-110"/>
      <point x="243" y="-161"/>
      <point x="136" y="-170" type="curve"/>
    </contour>
  </outline>
</glyph>
<glyph name="slash" format="1">
  <advance width="850"/>
  <unicode hex="002F"/>
  <outline>
    <contour>
      <point x="73" y="-59" type="line"/>
      <point x="228" y="-59" type="line"/>
      <point x="792" y="1224" type="line"/>
      <point x="636" y="1224" type="line"/>
    </contour>
  </outline>
</glyph>
<glyph name="zero" format="1">
  <advance width="1080"/>
  <unicode hex="0030"/>
  <outline>
    <contour>
      <point x="538" y="141" type="curve" smooth="yes"/>
      <point x="370" y="140"/>
      <point x="314" y="300"/>
      <point x="314" y="574" type="curve" smooth="yes"/>
      <point x="314" y="834"/>
      <point x="375" y="1012"/>
      <point x="540" y="1012" type="curve" smooth="yes"/>
      <point x="714" y="1012"/>
      <point x="767" y="835"/>
      <point x="767" y="573" type="curve" smooth="yes"/>
      <point x="767" y="313"/>
      <point x="715" y="141"/>
    </contour>
    <contour>
      <point x="540" y="-20" type="curve" smooth="yes"/>
      <point x="851" y="-20"/>
      <point x="987" y="206"/>
      <point x="987" y="574" type="curve" smooth="yes"/>
      <point x="987" y="935"/>
      <point x="850" y="1173"/>
      <point x="540" y="1173" type="curve" smooth="yes"/>
      <point x="229" y="1173"/>
      <point x="93" y="945"/>
      <point x="93" y="574" type="curve" smooth="yes"/>
      <point x="93" y="217"/>
      <point x="230" y="-20"/>
    </contour>
  </outline>
</glyph>
<glyph name="two" format="1">
  <advance width="1101"/>
  <unicode hex="0032"/>
  <outline>
    <contour>
      <point x="170" y="0" type="line"/>
      <point x="965" y="0" type="line"/>
      <point x="963" y="368" type="line"/>
      <point x="797" y="368" type="line"/>
      <point x="796" y="140" type="line"/>
      <point x="417" y="140" type="line"/>
      <point x="757" y="501" type="line" smooth="yes"/>
      <point x="890" y="643"/>
      <point x="946" y="748"/>
      <point x="946" y="850" type="curve" smooth="yes"/>
      <point x="946" y="1077"/>
      <point x="748" y="1172"/>
      <point x="559" y="1172" type="curve" smooth="yes"/>
      <point x="277" y="1172"/>
      <point x="148" y="1033"/>
      <point x="148" y="832" type="curve" smooth="yes"/>
      <point x="148" y="784"/>
      <point x="158" y="727"/>
      <point x="177" y="673" type="curve"/>
      <point x="359" y="673" type="line"/>
      <point x="345" y="712"/>
      <point x="338" y="766"/>
      <point x="338" y="814" type="curve" smooth="yes"/>
      <point x="338" y="938"/>
      <point x="415" y="1010"/>
      <point x="553" y="1010" type="curve" smooth="yes"/>
      <point x="666" y="1010"/>
      <point x="732" y="944"/>
      <point x="732" y="846" type="curve" smooth="yes"/>
      <point x="732" y="778"/>
      <point x="694" y="704"/>
      <point x="610" y="614" type="curve" smooth="yes"/>
      <point x="170" y="142" type="line"/>
    </contour>
  </outline>
</glyph>
<glyph name="three" format="1">
  <advance width="1101"/>
  <unicode hex="0033"/>
  <outline>
    <contour>
      <point x="545" y="-20" type="curve" smooth="yes"/>
      <point x="799" y="-20"/>
      <point x="978" y="105"/>
      <point x="978" y="329" type="curve" smooth="yes"/>
      <point x="978" y="485"/>
      <point x="878" y="582"/>
      <point x="720" y="605" type="curve"/>
      <point x="855" y="635"/>
      <point x="930" y="728"/>
      <point x="930" y="868" type="curve" smooth="yes"/>
      <point x="930" y="1066"/>
      <point x="773" y="1172"/>
      <point x="535" y="1172" type="curve" smooth="yes"/>
      <point x="320" y="1172"/>
      <point x="187" y="1087"/>
      <point x="117" y="928" type="curve"/>
      <point x="276" y="852" type="line"/>
      <point x="328" y="962"/>
      <point x="410" y="1012"/>
      <point x="535" y="1012" type="curve" smooth="yes"/>
      <point x="658" y="1012"/>
      <point x="735" y="955"/>
      <point x="735" y="849" type="curve" smooth="yes"/>
      <point x="735" y="710"/>
      <point x="634" y="678"/>
      <point x="429" y="678" type="curve"/>
      <point x="429" y="524" type="line"/>
      <point x="666" y="524"/>
      <point x="774" y="464"/>
      <point x="774" y="332" type="curve" smooth="yes"/>
      <point x="774" y="202"/>
      <point x="686" y="139"/>
      <point x="540" y="139" type="curve" smooth="yes"/>
      <point x="409" y="139"/>
      <point x="330" y="208"/>
      <point x="287" y="312" type="curve"/>
      <point x="130" y="227" type="line"/>
      <point x="193" y="77"/>
      <point x="314" y="-20"/>
    </contour>
  </outline>
</glyph>
<glyph name="four" format="1">
  <advance width="1101"/>
  <unicode hex="0034"/>
  <outline>
    <contour>
      <point x="401" y="0" type="line"/>
      <point x="959" y="0" type="line"/>
      <point x="959" y="140" type="line"/>
      <point x="794" y="140" type="line"/>
      <point x="794" y="334" type="line"/>
      <point x="990" y="334" type="line"/>
      <point x="990" y="470" type="line"/>
      <point x="794" y="470" type="line"/>
      <point x="794" y="1152" type="line"/>
      <point x="595" y="1152" type="line"/>
      <point x="90" y="466" type="line"/>
      <point x="106" y="334" type="line"/>
      <point x="592" y="334" type="line"/>
      <point x="592" y="140" type="line"/>
      <point x="401" y="140" type="line"/>
    </contour>
    <contour>
      <point x="274" y="470" type="line"/>
      <point x="592" y="914" type="line"/>
      <point x="592" y="470" type="line"/>
    </contour>
  </outline>
</glyph>
<glyph name="five" format="1">
  <advance width="1101"/>
  <unicode hex="0035"/>
  <outline>
    <contour>
      <point x="557" y="-23" type="curve" smooth="yes"/>
      <point x="773" y="-23"/>
      <point x="985" y="104"/>
      <point x="985" y="366" type="curve" smooth="yes"/>
      <point x="985" y="617"/>
      <point x="807" y="744"/>
      <point x="620" y="744" type="curve" smooth="yes"/>
      <point x="527" y="744"/>
      <point x="433" y="713"/>
      <point x="364" y="652" type="curve"/>
      <point x="374" y="1012" type="line"/>
      <point x="765" y="1012" type="line"/>
      <point x="765" y="860" type="line"/>
      <point x="911" y="860" type="line"/>
      <point x="911" y="1152" type="line"/>
      <point x="208" y="1152" type="line"/>
      <point x="197" y="548" type="line"/>
      <point x="341" y="493" type="line"/>
      <point x="418" y="562"/>
      <point x="505" y="597"/>
      <point x="583" y="597" type="curve" smooth="yes"/>
      <point x="699" y="597"/>
      <point x="791" y="518"/>
      <point x="791" y="364" type="curve" smooth="yes"/>
      <point x="791" y="204"/>
      <point x="682" y="126"/>
      <point x="563" y="126" type="curve" smooth="yes"/>
      <point x="452" y="126"/>
      <point x="332" y="192"/>
      <point x="279" y="323" type="curve"/>
      <point x="141" y="226" type="line"/>
      <point x="201" y="63"/>
      <point x="380" y="-23"/>
    </contour>
  </outline>
</glyph>
<glyph name="six" format="1">
  <advance width="1101"/>
  <unicode hex="0036"/>
  <outline>
    <contour>
      <point x="572" y="-22" type="curve" smooth="yes"/>
      <point x="815" y="-22"/>
      <point x="984" y="150"/>
      <point x="984" y="392" type="curve" smooth="yes"/>
      <point x="984" y="644"/>
      <point x="786" y="758"/>
      <point x="614" y="761" type="curve" smooth="yes"/>
      <point x="568" y="762"/>
      <point x="523" y="754"/>
      <point x="483" y="737" type="curve"/>
      <point x="783" y="1140" type="line"/>
      <point x="636" y="1251" type="line"/>
      <point x="284" y="755" type="line" smooth="yes"/>
      <point x="199" y="643"/>
      <point x="149" y="512"/>
      <point x="149" y="398" type="curve" smooth="yes"/>
      <point x="149" y="159"/>
      <point x="315" y="-22"/>
    </contour>
    <contour>
      <point x="569" y="138" type="curve" smooth="yes"/>
      <point x="442" y="138"/>
      <point x="347" y="236"/>
      <point x="352" y="383" type="curve" smooth="yes"/>
      <point x="356" y="519"/>
      <point x="444" y="618"/>
      <point x="571" y="618" type="curve" smooth="yes"/>
      <point x="699" y="618"/>
      <point x="786" y="524"/>
      <point x="786" y="385" type="curve" smooth="yes"/>
      <point x="786" y="241"/>
      <point x="692" y="138"/>
    </contour>
  </outline>
</glyph>
<glyph name="seven" format="1">
  <advance width="1101"/>
  <unicode hex="0037"/>
  <outline>
    <contour>
      <point x="381" y="0" type="curve"/>
      <point x="606" y="0" type="line"/>
      <point x="606" y="0"/>
      <point x="820" y="644"/>
      <point x="991" y="1006" type="curve"/>
      <point x="991" y="1152" type="line"/>
      <point x="167" y="1152" type="line"/>
      <point x="167" y="814" type="line"/>
      <point x="330" y="814" type="line"/>
      <point x="330" y="1012" type="line"/>
      <point x="770" y="1012" type="line"/>
      <point x="606" y="683"/>
      <point x="381" y="0"/>
    </contour>
  </outline>
</glyph>
<glyph name="eight" format="1">
  <advance width="1101"/>
  <unicode hex="0038"/>
  <outline>
    <contour>
      <point x="551" y="-20" type="curve" smooth="yes"/>
      <point x="811" y="-20"/>
      <point x="996" y="103"/>
      <point x="996" y="314" type="curve" smooth="yes"/>
      <point x="996" y="473"/>
      <point x="910" y="571"/>
      <point x="776" y="599" type="curve"/>
      <point x="890" y="633"/>
      <point x="960" y="713"/>
      <point x="960" y="869" type="curve" smooth="yes"/>
      <point x="960" y="1061"/>
      <point x="787" y="1173"/>
      <point x="551" y="1173" type="curve" smooth="yes"/>
      <point x="314" y="1173"/>
      <point x="141" y="1060"/>
      <point x="141" y="867" type="curve" smooth="yes"/>
      <point x="141" y="728"/>
      <point x="202" y="636"/>
      <point x="325" y="597" type="curve"/>
      <point x="187" y="568"/>
      <point x="106" y="470"/>
      <point x="106" y="304" type="curve" smooth="yes"/>
      <point x="106" y="100"/>
      <point x="294" y="-20"/>
    </contour>
    <contour>
      <point x="551" y="132" type="curve" smooth="yes"/>
      <point x="417" y="132"/>
      <point x="321" y="202"/>
      <point x="321" y="323" type="curve" smooth="yes"/>
      <point x="321" y="446"/>
      <point x="403" y="513"/>
      <point x="519" y="529" type="curve" smooth="yes"/>
      <point x="694" y="510"/>
      <point x="780" y="448"/>
      <point x="780" y="321" type="curve" smooth="yes"/>
      <point x="780" y="201"/>
      <point x="685" y="132"/>
    </contour>
    <contour>
      <point x="579" y="663" type="curve"/>
      <point x="438" y="686"/>
      <point x="345" y="741"/>
      <point x="345" y="850" type="curve" smooth="yes"/>
      <point x="345" y="963"/>
      <point x="430" y="1021"/>
      <point x="551" y="1021" type="curve" smooth="yes"/>
      <point x="673" y="1021"/>
      <point x="757" y="962"/>
      <point x="757" y="850" type="curve" smooth="yes"/>
      <point x="757" y="742"/>
      <point x="678" y="682"/>
    </contour>
  </outline>
</glyph>
<glyph name="nine" format="1">
  <advance width="1101"/>
  <unicode hex="0039"/>
  <outline>
    <contour>
      <point x="499" y="-99" type="line"/>
      <point x="851" y="398" type="line" smooth="yes"/>
      <point x="935" y="509"/>
      <point x="985" y="641"/>
      <point x="985" y="755" type="curve" smooth="yes"/>
      <point x="985" y="994"/>
      <point x="818" y="1174"/>
      <point x="561" y="1174" type="curve" smooth="yes"/>
      <point x="318" y="1174"/>
      <point x="152" y="1004"/>
      <point x="152" y="762" type="curve" smooth="yes"/>
      <point x="152" y="506"/>
      <point x="350" y="382"/>
      <point x="524" y="383" type="curve" smooth="yes"/>
      <point x="568" y="383"/>
      <point x="610" y="391"/>
      <point x="648" y="407" type="curve"/>
      <point x="351" y="12" type="line"/>
    </contour>
    <contour>
      <point x="567" y="532" type="curve" smooth="yes"/>
      <point x="439" y="532"/>
      <point x="354" y="626"/>
      <point x="354" y="765" type="curve" smooth="yes"/>
      <point x="354" y="909"/>
      <point x="446" y="1012"/>
      <point x="569" y="1012" type="curve" smooth="yes"/>
      <point x="696" y="1012"/>
      <point x="793" y="914"/>
      <point x="788" y="767" type="curve" smooth="yes"/>
      <point x="783" y="631"/>
      <point x="694" y="532"/>
    </contour>
  </outline>
</glyph>
<glyph name="semicolon" format="1">
  <advance width="520"/>
  <unicode hex="003B"/>
  <outline>
    <contour>
      <point x="143" y="-193" type="line"/>
      <point x="346" y="-191"/>
      <point x="390" y="-97"/>
      <point x="390" y="82" type="curve"/>
      <point x="390" y="324" type="line"/>
      <point x="136" y="324" type="line"/>
      <point x="136" y="80" type="line"/>
      <point x="266" y="80" type="line"/>
      <point x="266" y="-30"/>
      <point x="250" y="-81"/>
      <point x="143" y="-90" type="curve"/>
    </contour>
    <contour>
      <point x="133" y="621" type="line"/>
      <point x="387" y="621" type="line"/>
      <point x="387" y="866" type="line"/>
      <point x="133" y="866" type="line"/>
    </contour>
  </outline>
</glyph>
<glyph name="greater" format="1">
  <advance width="1122"/>
  <unicode hex="003E"/>
  <outline>
    <contour>
      <point x="127" y="112" type="line"/>
      <point x="1043" y="487" type="line"/>
      <point x="1043" y="623" type="line"/>
      <point x="127" y="998" type="line"/>
      <point x="127" y="835" type="line"/>
      <point x="852" y="556" type="line"/>
      <point x="127" y="276" type="line"/>
    </contour>
  </outline>
</glyph>
<glyph name="question" format="1">
  <advance width="870"/>
  <unicode hex="003F"/>
  <outline>
    <contour>
      <point x="328" y="339" type="curve"/>
      <point x="471" y="339" type="line"/>
      <point x="480" y="501"/>
      <point x="541" y="566"/>
      <point x="634" y="626" type="curve" smooth="yes"/>
      <point x="722" y="684"/>
      <point x="807" y="733"/>
      <point x="807" y="883" type="curve" smooth="yes"/>
      <point x="807" y="1079"/>
      <point x="657" y="1198"/>
      <point x="444" y="1198" type="curve" smooth="yes"/>
      <point x="214" y="1198"/>
      <point x="70" y="1077"/>
      <point x="70" y="858" type="curve"/>
      <point x="252" y="857" type="line"/>
      <point x="252" y="986"/>
      <point x="320" y="1055"/>
      <point x="450" y="1055" type="curve" smooth="yes"/>
      <point x="552" y="1055"/>
      <point x="621" y="988"/>
      <point x="621" y="880" type="curve" smooth="yes"/>
      <point x="621" y="783"/>
      <point x="552" y="753"/>
      <point x="485" y="709" type="curve" smooth="yes"/>
      <point x="400" y="651"/>
      <point x="328" y="558"/>
    </contour>
    <contour>
      <point x="298" y="0" type="line"/>
      <point x="509" y="0" type="line"/>
      <point x="509" y="236" type="line"/>
      <point x="298" y="236" type="line"/>
    </contour>
  </outline>
</glyph>
<glyph name="at" format="1">
  <advance width="1471"/>
  <unicode hex="0040"/>
  <outline>
    <contour>
      <point x="798" y="-111" type="curve" smooth="yes"/>
      <point x="981" y="-111"/>
      <point x="1132" y="-59"/>
      <point x="1254" y="36" type="curve"/>
      <point x="1173" y="133" type="line"/>
      <point x="1074" y="54"/>
      <point x="942" y="15"/>
      <point x="787" y="15" type="curve" smooth="yes"/>
      <point x="448" y="15"/>
      <point x="242" y="214"/>
      <point x="242" y="526" type="curve" smooth="yes"/>
      <point x="242" y="848"/>
      <point x="469" y="1088"/>
      <point x="777" y="1088" type="curve" smooth="yes"/>
      <point x="1061" y="1088"/>
      <point x="1241" y="907"/>
      <point x="1241" y="673" type="curve" smooth="yes"/>
      <point x="1241" y="476"/>
      <point x="1109" y="305"/>
      <point x="1010" y="305" type="curve" smooth="yes"/>
      <point x="979" y="305"/>
      <point x="995" y="360"/>
      <point x="1015" y="446" type="curve" smooth="yes"/>
      <point x="1118" y="926" type="line"/>
      <point x="963" y="926" type="line"/>
      <point x="942" y="818" type="line"/>
      <point x="908" y="898"/>
      <point x="840" y="942"/>
      <point x="750" y="942" type="curve" smooth="yes"/>
      <point x="511" y="942"/>
      <point x="372" y="721"/>
      <point x="372" y="505" type="curve" smooth="yes"/>
      <point x="372" y="301"/>
      <point x="493" y="172"/>
      <point x="658" y="172" type="curve" smooth="yes"/>
      <point x="736" y="172"/>
      <point x="806" y="206"/>
      <point x="859" y="278" type="curve"/>
      <point x="877" y="209"/>
      <point x="905" y="172"/>
      <point x="964" y="172" type="curve" smooth="yes"/>
      <point x="1235" y="172"/>
      <point x="1384" y="418"/>
      <point x="1384" y="678" type="curve" smooth="yes"/>
      <point x="1384" y="977"/>
      <point x="1165" y="1216"/>
      <point x="781" y="1216" type="curve" smooth="yes"/>
      <point x="364" y="1216"/>
      <point x="91" y="887"/>
      <point x="91" y="529" type="curve" smooth="yes"/>
      <point x="91" y="173"/>
      <point x="347" y="-111"/>
    </contour>
    <contour>
      <point x="682" y="297" type="curve" smooth="yes"/>
      <point x="574" y="297"/>
      <point x="524" y="387"/>
      <point x="524" y="493" type="curve" smooth="yes"/>
      <point x="524" y="646"/>
      <point x="598" y="813"/>
      <point x="743" y="813" type="curve" smooth="yes"/>
      <point x="836" y="813"/>
      <point x="901" y="741"/>
      <point x="901" y="644" type="curve" smooth="yes"/>
      <point x="901" y="490"/>
      <point x="816" y="297"/>
    </contour>
  </outline>
</glyph>
<glyph name="A" format="1">
  <advance width="1361"/>
  <unicode hex="0041"/>
  <outline>
    <contour>
      <point x="687" y="1153" type="move" name="top"/>
    </contour>
    <contour>
      <point x="1091" y="0" type="move" name="ogonek"/>
    </contour>
    <contour>
      <point x="681" y="0" type="move" name="bot"/>
    </contour>
    <contour>
      <point x="34" y="0" type="line"/>
      <point x="534" y="0" type="line"/>
      <point x="534" y="141" type="line"/>
      <point x="375" y="141" type="line"/>
      <point x="469" y="426" type="line"/>
      <point x="866" y="426" type="line"/>
      <point x="963" y="141" type="line"/>
      <point x="807" y="141" type="line"/>
      <point x="807" y="0" type="line"/>
      <point x="1327" y="0" type="line"/>
      <point x="1327" y="141" type="line"/>
      <point x="1194" y="141" type="line"/>
      <point x="876" y="1012" type="line"/>
      <point x="1000" y="1012" type="line"/>
      <point x="1000" y="1152" type="line"/>
      <point x="359" y="1152" type="line"/>
      <point x="359" y="1012" type="line"/>
      <point x="481" y="1012" type="line"/>
      <point x="175" y="141" type="line"/>
      <point x="34" y="141" type="line"/>
    </contour>
    <contour>
      <point x="511" y="567" type="line"/>
      <point x="661" y="1012" type="line"/>
      <point x="678" y="1012" type="line"/>
      <point x="825" y="567" type="line"/>
    </contour>
  </outline>
</glyph>
<glyph name="B" format="1">
  <advance width="1201"/>
  <unicode hex="0042"/>
  <outline>
    <contour>
      <point x="597" y="1152" type="move" name="top"/>
    </contour>
    <contour>
      <point x="350" y="0" type="line"/>
      <point x="663" y="0" type="line" smooth="yes"/>
      <point x="945" y="0"/>
      <point x="1133" y="105"/>
      <point x="1133" y="331" type="curve" smooth="yes"/>
      <point x="1133" y="481"/>
      <point x="1045" y="574"/>
      <point x="903" y="616" type="curve"/>
      <point x="1012" y="662"/>
      <point x="1077" y="749"/>
      <point x="1077" y="863" type="curve" smooth="yes"/>
      <point x="1077" y="1066"/>
      <point x="934" y="1153"/>
      <point x="655" y="1152" type="curve" smooth="yes"/>
      <point x="366" y="1152" type="line"/>
      <point x="350" y="1012" type="line"/>
      <point x="587" y="1012" type="line" smooth="yes"/>
      <point x="774" y="1012"/>
      <point x="857" y="963"/>
      <point x="857" y="854" type="curve" smooth="yes"/>
      <point x="857" y="735"/>
      <point x="770" y="678"/>
      <point x="610" y="678" type="curve" smooth="yes"/>
      <point x="357" y="678" type="line"/>
      <point x="357" y="532" type="line"/>
      <point x="637" y="532" type="line" smooth="yes"/>
      <point x="806" y="532"/>
      <point x="908" y="468"/>
      <point x="908" y="340" type="curve" smooth="yes"/>
      <point x="908" y="208"/>
      <point x="814" y="141"/>
      <point x="631" y="141" type="curve" smooth="yes"/>
      <point x="350" y="141" type="line"/>
    </contour>
    <component base="uc_main_stem" xOffset="-45"/>
  </outline>
</glyph>
<glyph name="C" format="1">
  <advance width="1316"/>
  <unicode hex="0043"/>
  <outline>
    <contour>
      <point x="692" y="1153" type="move" name="top"/>
    </contour>
    <contour>
      <point x="697" y="0" type="move" name="bot"/>
    </contour>
    <contour>
      <point x="696" y="-20" type="curve" smooth="yes"/>
      <point x="936" y="-18"/>
      <point x="1159" y="85"/>
      <point x="1244" y="340" type="curve"/>
      <point x="1081" y="417" type="line"/>
      <point x="1032" y="229"/>
      <point x="880" y="148"/>
      <point x="702" y="148" type="curve" smooth="yes"/>
      <point x="475" y="148"/>
      <point x="320" y="322"/>
      <point x="320" y="576" type="curve" smooth="yes"/>
      <point x="320" y="830"/>
      <point x="477" y="1005"/>
      <point x="706" y="1005" type="curve" smooth="yes"/>
      <point x="867" y="1005"/>
      <point x="993" y="943"/>
      <point x="1062" y="781" type="curve"/>
      <point x="1209" y="781" type="line"/>
      <point x="1209" y="1155" type="line"/>
      <point x="1053" y="1155" type="line"/>
      <point x="1053" y="1030" type="line"/>
      <point x="978" y="1115"/>
      <point x="863" y="1173"/>
      <point x="700" y="1173" type="curve" smooth="yes"/>
      <point x="338" y="1173"/>
      <point x="87" y="937"/>
      <point x="87" y="576" type="curve" smooth="yes"/>
      <point x="87" y="218"/>
      <point x="335" y="-19"/>
    </contour>
  </outline>
</glyph>
<glyph name="D" format="1">
  <advance width="1381"/>
  <unicode hex="0044"/>
  <outline>
    <contour>
      <point x="676" y="1153" type="move" name="top"/>
    </contour>
    <contour>
      <point x="690" y="0" type="move" name="bot"/>
    </contour>
    <contour>
      <point x="361" y="588" type="move" name="mid"/>
    </contour>
    <contour>
      <point x="343" y="0" type="line"/>
      <point x="677" y="0" type="line" smooth="yes"/>
      <point x="1080" y="0"/>
      <point x="1303" y="222"/>
      <point x="1303" y="605" type="curve" smooth="yes"/>
      <point x="1303" y="950"/>
      <point x="1066" y="1153"/>
      <point x="678" y="1153" type="curve" smooth="yes"/>
      <point x="343" y="1153" type="line"/>
      <point x="343" y="1012" type="line"/>
      <point x="666" y="1012" type="line" smooth="yes"/>
      <point x="936" y="1012"/>
      <point x="1076" y="852"/>
      <point x="1076" y="598" type="curve" smooth="yes"/>
      <point x="1076" y="327"/>
      <point x="931" y="140"/>
      <point x="658" y="140" type="curve" smooth="yes"/>
      <point x="343" y="140" type="line"/>
    </contour>
    <component base="uc_main_stem" xOffset="-45"/>
  </outline>
</glyph>
<glyph name="E" format="1">
  <advance width="1198"/>
  <unicode hex="0045"/>
  <outline>
    <contour>
      <point x="620" y="1152" type="move" name="top"/>
    </contour>
    <contour>
      <point x="710" y="0" type="move" name="ogonek"/>
    </contour>
    <contour>
      <point x="599" y="0" type="move" name="bot"/>
    </contour>
    <contour>
      <point x="774" y="414" type="line"/>
      <point x="876" y="414" type="line"/>
      <point x="876" y="792" type="line"/>
      <point x="774" y="792" type="line"/>
      <point x="774" y="676" type="line"/>
      <point x="363" y="676" type="line"/>
      <point x="364" y="527" type="line"/>
      <point x="774" y="527" type="line"/>
    </contour>
    <contour>
      <point x="352" y="0" type="line"/>
      <point x="1124" y="0" type="line"/>
      <point x="1124" y="355" type="line"/>
      <point x="958" y="355" type="line"/>
      <point x="958" y="141" type="line"/>
      <point x="352" y="141" type="line"/>
    </contour>
    <contour>
      <point x="953" y="804" type="line"/>
      <point x="1119" y="804" type="line"/>
      <point x="1119" y="1152" type="line"/>
      <point x="352" y="1152" type="line"/>
      <point x="352" y="1011" type="line"/>
      <point x="953" y="1011" type="line"/>
    </contour>
    <component base="uc_main_stem" xOffset="-45"/>
  </outline>
</glyph>
<glyph name="F" format="1">
  <advance width="1102"/>
  <unicode hex="0046"/>
  <outline>
    <contour>
      <point x="590" y="1153" type="move" name="top"/>
    </contour>
    <contour>
      <point x="551" y="0" type="move" name="bot"/>
    </contour>
    <contour>
      <point x="742" y="434" type="line"/>
      <point x="848" y="434" type="line"/>
      <point x="848" y="809" type="line"/>
      <point x="742" y="809" type="line"/>
      <point x="742" y="697" type="line"/>
      <point x="351" y="697" type="line"/>
      <point x="351" y="547" type="line"/>
      <point x="742" y="547" type="line"/>
    </contour>
    <contour>
      <point x="915" y="805" type="line"/>
      <point x="1084" y="805" type="line"/>
      <point x="1084" y="1152" type="line"/>
      <point x="330" y="1152" type="line"/>
      <point x="330" y="1012" type="line"/>
      <point x="915" y="1012" type="line"/>
    </contour>
    <component base="uc_main_stem" xOffset="-47"/>
  </outline>
</glyph>
<glyph name="G" format="1">
  <advance width="1393"/>
  <unicode hex="0047"/>
  <outline>
    <contour>
      <point x="705" y="1153" type="move" name="top"/>
    </contour>
    <contour>
      <point x="738" y="0" type="move" name="bot"/>
    </contour>
    <contour>
      <point x="721" y="-19" type="curve" smooth="yes"/>
      <point x="1079" y="-19"/>
      <point x="1296" y="167"/>
      <point x="1304" y="584" type="curve"/>
      <point x="859" y="584" type="line"/>
      <point x="859" y="434" type="line"/>
      <point x="1079" y="434" type="line"/>
      <point x="1062" y="249"/>
      <point x="928" y="148"/>
      <point x="721" y="150" type="curve" smooth="yes"/>
      <point x="481" y="152"/>
      <point x="320" y="324"/>
      <point x="320" y="580" type="curve" smooth="yes"/>
      <point x="320" y="835"/>
      <point x="480" y="1005"/>
      <point x="719" y="1005" type="curve" smooth="yes"/>
      <point x="883" y="1005"/>
      <point x="1023" y="934"/>
      <point x="1096" y="774" type="curve"/>
      <point x="1251" y="774" type="line"/>
      <point x="1251" y="1156" type="line"/>
      <point x="1080" y="1156" type="line"/>
      <point x="1080" y="1034" type="line"/>
      <point x="991" y="1118"/>
      <point x="864" y="1174"/>
      <point x="715" y="1174" type="curve" smooth="yes"/>
      <point x="338" y="1174"/>
      <point x="87" y="937"/>
      <point x="87" y="580" type="curve" smooth="yes"/>
      <point x="87" y="207"/>
      <point x="347" y="-19"/>
    </contour>
  </outline>
</glyph>
<glyph name="H" format="1">
  <advance width="1458"/>
  <unicode hex="0048"/>
  <outline>
    <contour>
      <point x="732" y="1153" type="move" name="top"/>
    </contour>
    <contour>
      <point x="727" y="0" type="move" name="bot"/>
    </contour>
    <contour>
      <point x="361" y="521" type="line"/>
      <point x="1116" y="521" type="line"/>
      <point x="1116" y="674" type="line"/>
      <point x="361" y="674" type="line"/>
    </contour>
    <component base="uc_main_stem" xOffset="724"/>
    <component base="uc_main_stem" xOffset="-45"/>
  </outline>
</glyph>
<glyph name="K" format="1">
  <advance width="1319"/>
  <unicode hex="004B"/>
  <outline>
    <contour>
      <point x="683" y="1153" type="move" name="top"/>
    </contour>
    <contour>
      <point x="657" y="0" type="move" name="bot"/>
    </contour>
    <contour>
      <point x="729" y="0" type="line"/>
      <point x="1269" y="0" type="line"/>
      <point x="1269" y="141" type="line"/>
      <point x="1118" y="141" type="line"/>
      <point x="672" y="579" type="line"/>
      <point x="1129" y="1012" type="line"/>
      <point x="1268" y="1012" type="line"/>
      <point x="1268" y="1152" type="line"/>
      <point x="755" y="1152" type="line"/>
      <point x="755" y="1012" type="line"/>
      <point x="871" y="1012" type="line"/>
      <point x="412" y="571" type="line"/>
      <point x="849" y="141" type="line"/>
      <point x="729" y="141" type="line"/>
    </contour>
    <component base="uc_main_stem" xOffset="-47"/>
  </outline>
</glyph>
<glyph name="M" format="1">
  <advance width="1768"/>
  <unicode hex="004D"/>
  <outline>
    <contour>
      <point x="891" y="1153" type="move" name="top"/>
    </contour>
    <contour>
      <point x="884" y="0" type="move" name="bot"/>
    </contour>
    <contour>
      <point x="81" y="0" type="line"/>
      <point x="543" y="0" type="line"/>
      <point x="543" y="141" type="line"/>
      <point x="396" y="141" type="line"/>
      <point x="396" y="997" type="line"/>
      <point x="822" y="40" type="line"/>
      <point x="897" y="40" type="line"/>
      <point x="1325" y="998" type="line"/>
      <point x="1325" y="141" type="line"/>
      <point x="1178" y="141" type="line"/>
      <point x="1178" y="0" type="line"/>
      <point x="1687" y="0" type="line"/>
      <point x="1687" y="141" type="line"/>
      <point x="1530" y="141" type="line"/>
      <point x="1530" y="1012" type="line"/>
      <point x="1686" y="1012" type="line"/>
      <point x="1686" y="1152" type="line"/>
      <point x="1209" y="1152" type="line"/>
      <point x="877" y="391" type="line"/>
      <point x="542" y="1152" type="line"/>
      <point x="81" y="1152" type="line"/>
      <point x="81" y="1012" type="line"/>
      <point x="238" y="1012" type="line"/>
      <point x="238" y="141" type="line"/>
      <point x="81" y="141" type="line"/>
    </contour>
  </outline>
</glyph>
<glyph name="N" format="1">
  <advance width="1483"/>
  <unicode hex="004E"/>
  <outline>
    <contour>
      <point x="742" y="1153" type="move" name="top"/>
    </contour>
    <contour>
      <point x="745" y="0" type="move" name="bot"/>
    </contour>
    <contour>
      <point x="81" y="0" type="line"/>
      <point x="587" y="0" type="line"/>
      <point x="587" y="141" type="line"/>
      <point x="417" y="141" type="line"/>
      <point x="417" y="943" type="line"/>
      <point x="1063" y="0" type="line"/>
      <point x="1272" y="0" type="line"/>
      <point x="1272" y="1012" type="line"/>
      <point x="1437" y="1012" type="line"/>
      <point x="1437" y="1152" type="line"/>
      <point x="937" y="1152" type="line"/>
      <point x="937" y="1012" type="line"/>
      <point x="1108" y="1012" type="line"/>
      <point x="1108" y="289" type="line"/>
      <point x="512" y="1152" type="line"/>
      <point x="81" y="1152" type="line"/>
      <point x="81" y="1012" type="line"/>
      <point x="254" y="1012" type="line"/>
      <point x="254" y="141" type="line"/>
      <point x="81" y="141" type="line"/>
    </contour>
  </outline>
</glyph>
<glyph name="O" format="1">
  <advance width="1420"/>
  <unicode hex="004F"/>
  <outline>
    <contour>
      <point x="709" y="1153" type="move" name="top"/>
    </contour>
    <contour>
      <point x="815" y="0" type="move" name="ogonek"/>
    </contour>
    <contour>
      <point x="710" y="0" type="move" name="bot"/>
    </contour>
    <contour>
      <point x="710" y="148" type="curve" smooth="yes"/>
      <point x="477" y="148"/>
      <point x="321" y="319"/>
      <point x="321" y="574" type="curve" smooth="yes"/>
      <point x="321" y="832"/>
      <point x="477" y="1005"/>
      <point x="710" y="1005" type="curve" smooth="yes"/>
      <point x="943" y="1005"/>
      <point x="1099" y="832"/>
      <point x="1099" y="574" type="curve" smooth="yes"/>
      <point x="1099" y="319"/>
      <point x="943" y="148"/>
    </contour>
    <contour>
      <point x="710" y="-20" type="curve" smooth="yes"/>
      <point x="1085" y="-20"/>
      <point x="1332" y="221"/>
      <point x="1332" y="573" type="curve" smooth="yes"/>
      <point x="1332" y="933"/>
      <point x="1086" y="1173"/>
      <point x="709" y="1173" type="curve" smooth="yes"/>
      <point x="333" y="1173"/>
      <point x="88" y="932"/>
      <point x="88" y="573" type="curve" smooth="yes"/>
      <point x="88" y="217"/>
      <point x="335" y="-20"/>
    </contour>
  </outline>
</glyph>
<glyph name="P" format="1">
  <advance width="1166"/>
  <unicode hex="0050"/>
  <outline>
    <contour>
      <point x="589" y="1152" type="move" name="top"/>
    </contour>
    <contour>
      <point x="583" y="0" type="move" name="bot"/>
    </contour>
    <contour>
      <point x="526" y="467" type="line"/>
      <point x="609" y="467" type="line" smooth="yes"/>
      <point x="937" y="467"/>
      <point x="1108" y="586"/>
      <point x="1108" y="814" type="curve" smooth="yes"/>
      <point x="1108" y="1036"/>
      <point x="944" y="1152"/>
      <point x="629" y="1152" type="curve" smooth="yes"/>
      <point x="355" y="1152" type="line"/>
      <point x="355" y="1012" type="line"/>
      <point x="657" y="1012" type="line" smooth="yes"/>
      <point x="804" y="1012"/>
      <point x="881" y="944"/>
      <point x="881" y="814" type="curve" smooth="yes"/>
      <point x="881" y="678"/>
      <point x="785" y="613"/>
      <point x="600" y="613" type="curve" smooth="yes"/>
      <point x="527" y="613" type="line"/>
    </contour>
    <component base="uc_main_stem" xOffset="-45"/>
  </outline>
</glyph>
<glyph name="Q" format="1">
  <advance width="1416"/>
  <unicode hex="0051"/>
  <outline>
    <contour>
      <point x="1062" y="-278" type="curve" smooth="yes"/>
      <point x="1128" y="-278"/>
      <point x="1192" y="-266"/>
      <point x="1258" y="-245" type="curve"/>
      <point x="1213" y="-94" type="line"/>
      <point x="1175" y="-109"/>
      <point x="1117" y="-122"/>
      <point x="1068" y="-122" type="curve" smooth="yes"/>
      <point x="955" y="-122"/>
      <point x="872" y="-49"/>
      <point x="798" y="54" type="curve"/>
      <point x="571" y="57" type="line"/>
      <point x="737" y="-183"/>
      <point x="879" y="-278"/>
    </contour>
    <component base="O"/>
  </outline>
</glyph>
<glyph name="R" format="1">
  <advance width="1263"/>
  <unicode hex="0052"/>
  <outline>
    <contour>
      <point x="626" y="1152" type="move" name="top"/>
    </contour>
    <contour>
      <point x="714" y="0" type="move" name="bot"/>
    </contour>
    <contour>
      <point x="917" y="0" type="line"/>
      <point x="1221" y="0" type="line"/>
      <point x="1221" y="141" type="line"/>
      <point x="1060" y="141" type="line"/>
      <point x="831" y="548" type="line"/>
      <point x="1014" y="594"/>
      <point x="1102" y="691"/>
      <point x="1102" y="853" type="curve" smooth="yes"/>
      <point x="1102" y="1079"/>
      <point x="924" y="1152"/>
      <point x="679" y="1152" type="curve" smooth="yes"/>
      <point x="352" y="1152" type="line"/>
      <point x="352" y="1012" type="line"/>
      <point x="681" y="1012" type="line" smooth="yes"/>
      <point x="801" y="1012"/>
      <point x="883" y="957"/>
      <point x="883" y="850" type="curve" smooth="yes"/>
      <point x="883" y="734"/>
      <point x="821" y="669"/>
      <point x="624" y="669" type="curve" smooth="yes"/>
      <point x="526" y="669" type="line"/>
      <point x="526" y="524" type="line"/>
      <point x="633" y="524" type="line"/>
    </contour>
    <component base="uc_main_stem" xOffset="-45"/>
  </outline>
</glyph>
<glyph name="S" format="1">
  <advance width="1077"/>
  <unicode hex="0053"/>
  <outline>
    <contour>
      <point x="532" y="1153" type="move" name="top"/>
    </contour>
    <contour>
      <point x="587" y="-1" type="move" name="bot"/>
    </contour>
    <contour>
      <point x="606" y="-20" type="curve" smooth="yes"/>
      <point x="808" y="-20"/>
      <point x="988" y="103"/>
      <point x="988" y="318" type="curve" smooth="yes"/>
      <point x="988" y="560"/>
      <point x="825" y="627"/>
      <point x="579" y="685" type="curve" smooth="yes"/>
      <point x="405" y="726"/>
      <point x="327" y="760"/>
      <point x="327" y="868" type="curve" smooth="yes"/>
      <point x="327" y="975"/>
      <point x="409" y="1023"/>
      <point x="520" y="1023" type="curve" smooth="yes"/>
      <point x="611" y="1023"/>
      <point x="705" y="984"/>
      <point x="755" y="927" type="curve"/>
      <point x="765" y="820" type="line"/>
      <point x="924" y="820" type="line"/>
      <point x="924" y="1153" type="line"/>
      <point x="755" y="1153" type="line"/>
      <point x="755" y="1083" type="line"/>
      <point x="681" y="1141"/>
      <point x="588" y="1173"/>
      <point x="489" y="1173" type="curve" smooth="yes"/>
      <point x="299" y="1173"/>
      <point x="132" y="1066"/>
      <point x="132" y="860" type="curve" smooth="yes"/>
      <point x="132" y="629"/>
      <point x="284" y="565"/>
      <point x="541" y="509" type="curve" smooth="yes"/>
      <point x="694" y="476"/>
      <point x="777" y="438"/>
      <point x="777" y="308" type="curve" smooth="yes"/>
      <point x="777" y="194"/>
      <point x="682" y="135"/>
      <point x="569" y="135" type="curve" smooth="yes"/>
      <point x="468" y="135"/>
      <point x="372" y="189"/>
      <point x="311" y="266" type="curve"/>
      <point x="301" y="390" type="line"/>
      <point x="140" y="390" type="line"/>
      <point x="140" y="0" type="line"/>
      <point x="311" y="0" type="line"/>
      <point x="311" y="94" type="line"/>
      <point x="386" y="20"/>
      <point x="496" y="-20"/>
    </contour>
  </outline>
</glyph>
<glyph name="T" format="1">
  <advance width="1128"/>
  <unicode hex="0054"/>
  <outline>
    <contour>
      <point x="569" y="1152" type="move" name="top"/>
    </contour>
    <contour>
      <point x="573" y="0" type="move" name="bot"/>
    </contour>
    <contour>
      <point x="568" y="713" type="move" name="mid"/>
    </contour>
    <contour>
      <point x="45" y="735" type="line"/>
      <point x="210" y="735" type="line"/>
      <point x="210" y="1012" type="line"/>
      <point x="918" y="1012" type="line"/>
      <point x="918" y="735" type="line"/>
      <point x="1083" y="735" type="line"/>
      <point x="1083" y="1152" type="line"/>
      <point x="45" y="1152" type="line"/>
    </contour>
    <component base="uc_main_stem" xOffset="180"/>
  </outline>
</glyph>
<glyph name="W" format="1">
  <advance width="1836"/>
  <unicode hex="0057"/>
  <outline>
    <contour>
      <point x="925" y="1152" type="move" name="top"/>
    </contour>
    <contour>
      <point x="918" y="0" type="move" name="bot"/>
    </contour>
    <contour>
      <point x="474" y="0" type="line"/>
      <point x="655" y="0" type="line"/>
      <point x="921" y="816" type="line"/>
      <point x="1191" y="0" type="line"/>
      <point x="1375" y="0" type="line"/>
      <point x="1667" y="1013" type="line"/>
      <point x="1810" y="1013" type="line"/>
      <point x="1810" y="1153" type="line"/>
      <point x="1348" y="1153" type="line"/>
      <point x="1348" y="1013" type="line"/>
      <point x="1492" y="1013" type="line"/>
      <point x="1295" y="282" type="line"/>
      <point x="1013" y="1103" type="line"/>
      <point x="856" y="1103" type="line"/>
      <point x="579" y="282" type="line"/>
      <point x="377" y="1013" type="line"/>
      <point x="520" y="1013" type="line"/>
      <point x="520" y="1153" type="line"/>
      <point x="26" y="1153" type="line"/>
      <point x="26" y="1013" type="line"/>
      <point x="171" y="1013" type="line"/>
    </contour>
  </outline>
</glyph>
<glyph name="X" format="1">
  <advance width="1304"/>
  <unicode hex="0058"/>
  <outline>
    <contour>
      <point x="31" y="0" type="line"/>
      <point x="538" y="0" type="line"/>
      <point x="538" y="133" type="line"/>
      <point x="396" y="133" type="line"/>
      <point x="629" y="471" type="line"/>
      <point x="865" y="133" type="line"/>
      <point x="725" y="133" type="line"/>
      <point x="725" y="0" type="line"/>
      <point x="1273" y="0" type="line"/>
      <point x="1273" y="133" type="line"/>
      <point x="1104" y="133" type="line"/>
      <point x="759" y="598" type="line"/>
      <point x="1078" y="1020" type="line"/>
      <point x="1240" y="1020" type="line"/>
      <point x="1240" y="1152" type="line"/>
      <point x="749" y="1152" type="line"/>
      <point x="749" y="1020" type="line"/>
      <point x="885" y="1020" type="line"/>
      <point x="663" y="709" type="line"/>
      <point x="442" y="1020" type="line"/>
      <point x="576" y="1020" type="line"/>
      <point x="576" y="1152" type="line"/>
      <point x="44" y="1152" type="line"/>
      <point x="44" y="1020" type="line"/>
      <point x="206" y="1020" type="line"/>
      <point x="532" y="583" type="line"/>
      <point x="201" y="133" type="line"/>
      <point x="31" y="133" type="line"/>
    </contour>
  </outline>
</glyph>
<glyph name="Y" format="1">
  <advance width="1300"/>
  <unicode hex="0059"/>
  <outline>
    <contour>
      <point x="660" y="1153" type="move" name="top"/>
    </contour>
    <contour>
      <point x="650" y="0" type="move" name="bot"/>
    </contour>
    <contour>
      <point x="377" y="0" type="line"/>
      <point x="933" y="0" type="line"/>
      <point x="933" y="141" type="line"/>
      <point x="762" y="141" type="line"/>
      <point x="762" y="510" type="line"/>
      <point x="1110" y="1013" type="line"/>
      <point x="1269" y="1013" type="line"/>
      <point x="1269" y="1153" type="line"/>
      <point x="775" y="1153" type="line"/>
      <point x="775" y="1013" type="line"/>
      <point x="917" y="1013" type="line"/>
      <point x="674" y="646" type="line"/>
      <point x="416" y="1013" type="line"/>
      <point x="559" y="1013" type="line"/>
      <point x="559" y="1153" type="line"/>
      <point x="28" y="1153" type="line"/>
      <point x="28" y="1013" type="line"/>
      <point x="180" y="1013" type="line"/>
      <point x="544" y="509" type="line"/>
      <point x="544" y="141" type="line"/>
      <point x="377" y="141" type="line"/>
    </contour>
  </outline>
</glyph>
<glyph name="bracketleft" format="1">
  <advance width="688"/>
  <unicode hex="005B"/>
  <outline>
    <contour>
      <point x="186" y="-195" type="line"/>
      <point x="595" y="-195" type="line"/>
      <point x="595" y="-60" type="line"/>
      <point x="379" y="-60" type="line"/>
      <point x="379" y="1112" type="line"/>
      <point x="595" y="1112" type="line"/>
      <point x="595" y="1248" type="line"/>
      <point x="186" y="1248" type="line"/>
    </contour>
  </outline>
</glyph>
<glyph name="bracketright" format="1">
  <advance width="687"/>
  <unicode hex="005D"/>
  <outline>
    <contour>
      <point x="114" y="-195" type="line"/>
      <point x="523" y="-195" type="line"/>
      <point x="523" y="1248" type="line"/>
      <point x="114" y="1248" type="line"/>
      <point x="114" y="1112" type="line"/>
      <point x="330" y="1112" type="line"/>
      <point x="330" y="-60" type="line"/>
      <point x="114" y="-60" type="line"/>
    </contour>
  </outline>
</glyph>
<glyph name="underscore" format="1">
  <advance width="941"/>
  <unicode hex="005F"/>
  <outline>
    <contour>
      <point x="0" y="-184" type="line"/>
      <point x="941" y="-184" type="line"/>
      <point x="941" y="-78" type="line"/>
      <point x="0" y="-78" type="line"/>
    </contour>
  </outline>
</glyph>
<glyph name="grave" format="1">
  <advance width="407"/>
  <unicode hex="0060"/>
  <outline>
    <contour>
      <point x="238" y="805" type="move" name="_top"/>
    </contour>
    <contour>
      <point x="210" y="903" type="line"/>
      <point x="342" y="903" type="line"/>
      <point x="243" y="1184" type="line"/>
      <point x="28" y="1184" type="line"/>
    </contour>
  </outline>
</glyph>
<glyph name="a" format="1">
  <advance width="940"/>
  <unicode hex="0061"/>
  <outline>
    <contour>
      <point x="440" y="804" type="move" name="top"/>
    </contour>
    <contour>
      <point x="730" y="0" type="move" name="ogonek"/>
    </contour>
    <contour>
      <point x="470" y="0" type="move" name="bot"/>
    </contour>
    <contour>
      <point x="351" y="-20" type="curve" smooth="yes"/>
      <point x="434" y="-20"/>
      <point x="542" y="16"/>
      <point x="604" y="83" type="curve"/>
      <point x="604" y="83"/>
      <point x="613" y="11"/>
      <point x="613" y="0" type="curve"/>
      <point x="912" y="0" type="line"/>
      <point x="912" y="140" type="line"/>
      <point x="791" y="140" type="line"/>
      <point x="791" y="534" type="line" smooth="yes"/>
      <point x="791" y="732"/>
      <point x="654" y="826"/>
      <point x="453" y="826" type="curve" smooth="yes"/>
      <point x="337" y="826"/>
      <point x="215" y="797"/>
      <point x="104" y="737" type="curve"/>
      <point x="159" y="607" type="line"/>
      <point x="266" y="653"/>
      <point x="358" y="674"/>
      <point x="428" y="674" type="curve" smooth="yes"/>
      <point x="532" y="674"/>
      <point x="595" y="623"/>
      <point x="595" y="522" type="curve" smooth="yes"/>
      <point x="595" y="454" type="line"/>
      <point x="551" y="463"/>
      <point x="475" y="469"/>
      <point x="412" y="469" type="curve" smooth="yes"/>
      <point x="196" y="469"/>
      <point x="73" y="399"/>
      <point x="73" y="217" type="curve" smooth="yes"/>
      <point x="73" y="70"/>
      <point x="190" y="-20"/>
    </contour>
    <contour>
      <point x="380" y="114" type="curve" smooth="yes"/>
      <point x="309" y="114"/>
      <point x="262" y="160"/>
      <point x="262" y="232" type="curve" smooth="yes"/>
      <point x="262" y="325"/>
      <point x="325" y="360"/>
      <point x="429" y="360" type="curve" smooth="yes"/>
      <point x="475" y="360"/>
      <point x="574" y="351"/>
      <point x="595" y="346" type="curve"/>
      <point x="595" y="194" type="line"/>
      <point x="534" y="142"/>
      <point x="459" y="114"/>
    </contour>
  </outline>
</glyph>
<glyph name="c" format="1">
  <advance width="960"/>
  <unicode hex="0063"/>
  <outline>
    <contour>
      <point x="510" y="804" type="move" name="top"/>
    </contour>
    <contour>
      <point x="515" y="0" type="move" name="bot"/>
    </contour>
    <contour>
      <point x="512" y="-21" type="curve" smooth="yes"/>
      <point x="660" y="-21"/>
      <point x="797" y="38"/>
      <point x="881" y="138" type="curve"/>
      <point x="801" y="260" type="line"/>
      <point x="728" y="179"/>
      <point x="630" y="132"/>
      <point x="511" y="134" type="curve" smooth="yes"/>
      <point x="362" y="137"/>
      <point x="268" y="246"/>
      <point x="268" y="406" type="curve" smooth="yes"/>
      <point x="268" y="564"/>
      <point x="369" y="672"/>
      <point x="515" y="672" type="curve" smooth="yes"/>
      <point x="639" y="672"/>
      <point x="705" y="603"/>
      <point x="729" y="499" type="curve"/>
      <point x="872" y="499" type="line"/>
      <point x="872" y="809" type="line"/>
      <point x="713" y="809" type="line"/>
      <point x="714" y="709" type="line"/>
      <point x="685" y="768"/>
      <point x="602" y="823"/>
      <point x="476" y="823" type="curve" smooth="yes"/>
      <point x="232" y="823"/>
      <point x="65" y="655"/>
      <point x="65" y="410" type="curve" smooth="yes"/>
      <point x="65" y="153"/>
      <point x="242" y="-21"/>
    </contour>
  </outline>
</glyph>
<glyph name="d" format="1">
  <advance width="1078"/>
  <unicode hex="0064"/>
  <outline>
    <contour>
      <point x="539" y="804" type="move" name="top"/>
    </contour>
    <contour>
      <point x="805" y="920" type="move" name="mid"/>
    </contour>
    <component base="lc_ascender_stem_2" xOffset="446"/>
    <component base="lc_bowl_left" xOffset="-85"/>
  </outline>
</glyph>
<glyph name="e" format="1">
  <advance width="954"/>
  <unicode hex="0065"/>
  <outline>
    <contour>
      <point x="488" y="804" type="move" name="top"/>
    </contour>
    <contour>
      <point x="611" y="0" type="move" name="ogonek"/>
    </contour>
    <contour>
      <point x="485" y="0" type="move" name="bot"/>
    </contour>
    <contour>
      <point x="515" y="-20" type="curve" smooth="yes"/>
      <point x="664" y="-20"/>
      <point x="782" y="34"/>
      <point x="873" y="129" type="curve"/>
      <point x="800" y="245" type="line"/>
      <point x="696" y="158"/>
      <point x="620" y="132"/>
      <point x="523" y="132" type="curve" smooth="yes"/>
      <point x="368" y="132"/>
      <point x="281" y="221"/>
      <point x="271" y="363" type="curve"/>
      <point x="880" y="363" type="line"/>
      <point x="880" y="644"/>
      <point x="753" y="823"/>
      <point x="499" y="823" type="curve" smooth="yes"/>
      <point x="239" y="823"/>
      <point x="64" y="654"/>
      <point x="64" y="400" type="curve" smooth="yes"/>
      <point x="64" y="146"/>
      <point x="242" y="-20"/>
    </contour>
    <contour>
      <point x="274" y="481" type="line"/>
      <point x="293" y="607"/>
      <point x="370" y="681"/>
      <point x="498" y="681" type="curve" smooth="yes"/>
      <point x="624" y="681"/>
      <point x="685" y="598"/>
      <point x="696" y="481" type="curve"/>
    </contour>
  </outline>
</glyph>
<glyph name="f" format="1">
  <advance width="703"/>
  <unicode hex="0066"/>
  <outline>
    <contour>
      <point x="351" y="804" type="move" name="top"/>
    </contour>
    <contour>
      <point x="79" y="0" type="line"/>
      <point x="611" y="0" type="line"/>
      <point x="611" y="140" type="line"/>
      <point x="428" y="140" type="line"/>
      <point x="428" y="664" type="line"/>
      <point x="603" y="664" type="line"/>
      <point x="603" y="804" type="line"/>
      <point x="428" y="804" type="line"/>
      <point x="428" y="968" type="line" smooth="yes"/>
      <point x="428" y="1061"/>
      <point x="467" y="1093"/>
      <point x="523" y="1093" type="curve" smooth="yes"/>
      <point x="574" y="1093"/>
      <point x="604" y="1068"/>
      <point x="613" y="974" type="curve"/>
      <point x="756" y="1004" type="line"/>
      <point x="744" y="1161"/>
      <point x="658" y="1233"/>
      <point x="515" y="1233" type="curve" smooth="yes"/>
      <point x="345" y="1233"/>
      <point x="232" y="1136"/>
      <point x="232" y="966" type="curve" smooth="yes"/>
      <point x="232" y="804" type="line"/>
      <point x="85" y="804" type="line"/>
      <point x="85" y="664" type="line"/>
      <point x="232" y="664" type="line"/>
      <point x="232" y="140" type="line"/>
      <point x="79" y="140" type="line"/>
    </contour>
  </outline>
</glyph>
<glyph name="g" format="1">
  <advance width="1049"/>
  <unicode hex="0067"/>
  <outline>
    <contour>
      <point x="543" y="804" type="move" name="top"/>
    </contour>
    <contour>
      <point x="524" y="0" type="move" name="bot"/>
    </contour>
    <contour>
      <point x="498" y="-384" type="curve" smooth="yes"/>
      <point x="714" y="-384"/>
      <point x="898" y="-290"/>
      <point x="898" y="-26" type="curve" smooth="yes"/>
      <point x="898" y="664" type="line"/>
      <point x="1005" y="664" type="line"/>
      <point x="1005" y="804" type="line"/>
      <point x="701" y="804" type="line"/>
      <point x="702" y="-35" type="line" smooth="yes"/>
      <point x="702" y="-183"/>
      <point x="605" y="-232"/>
      <point x="480" y="-232" type="curve" smooth="yes"/>
      <point x="400" y="-232"/>
      <point x="308" y="-212"/>
      <point x="223" y="-184" type="curve"/>
      <point x="188" y="-330" type="line"/>
      <point x="287" y="-363"/>
      <point x="396" y="-384"/>
    </contour>
    <component base="lc_bowl_left" yScale="0.99" xOffset="-89" yOffset="8"/>
  </outline>
</glyph>
<glyph name="i" format="1">
  <advance width="594"/>
  <unicode hex="0069"/>
  <outline>
    <contour>
      <point x="323" y="0" type="move" name="ogonek"/>
    </contour>
    <contour>
      <point x="83" y="0" type="line"/>
      <point x="554" y="0" type="line"/>
      <point x="554" y="140" type="line"/>
      <point x="424" y="140" type="line"/>
      <point x="424" y="639" type="line"/>
      <point x="424" y="804" type="line"/>
      <point x="83" y="804" type="line"/>
      <point x="83" y="664" type="line"/>
      <point x="228" y="664" type="line"/>
      <point x="228" y="140" type="line"/>
      <point x="83" y="140" type="line"/>
    </contour>
    <contour>
      <point x="325" y="975" type="curve" smooth="yes"/>
      <point x="401" y="975"/>
      <point x="450" y="1020"/>
      <point x="450" y="1093" type="curve" smooth="yes"/>
      <point x="450" y="1164"/>
      <point x="401" y="1210"/>
      <point x="325" y="1210" type="curve"/>
      <point x="248" y="1210"/>
      <point x="201" y="1164"/>
      <point x="201" y="1093" type="curve" smooth="yes"/>
      <point x="201" y="1020"/>
      <point x="248" y="975"/>
    </contour>
  </outline>
</glyph>
<glyph name="j" format="1">
  <advance width="582"/>
  <unicode hex="006A"/>
  <outline>
    <contour>
      <point x="25" y="-342" type="line"/>
      <point x="121" y="-342" type="line" smooth="yes"/>
      <point x="425" y="-342"/>
      <point x="450" y="-184"/>
      <point x="450" y="47" type="curve" smooth="yes"/>
      <point x="450" y="804" type="line"/>
      <point x="70" y="804" type="line"/>
      <point x="70" y="664" type="line"/>
      <point x="254" y="664" type="line"/>
      <point x="254" y="-13" type="line" smooth="yes"/>
      <point x="254" y="-134"/>
      <point x="225" y="-186"/>
      <point x="121" y="-186" type="curve" smooth="yes"/>
      <point x="25" y="-186" type="line"/>
    </contour>
    <contour>
      <point x="336" y="975" type="curve" smooth="yes"/>
      <point x="411" y="975"/>
      <point x="463" y="1022"/>
      <point x="463" y="1093" type="curve" smooth="yes"/>
      <point x="463" y="1163"/>
      <point x="411" y="1210"/>
      <point x="336" y="1210" type="curve" smooth="yes"/>
      <point x="263" y="1210"/>
      <point x="213" y="1163"/>
      <point x="213" y="1093" type="curve" smooth="yes"/>
      <point x="213" y="1022"/>
      <point x="263" y="975"/>
    </contour>
  </outline>
</glyph>
<glyph name="k" format="1">
  <advance width="1095"/>
  <unicode hex="006B"/>
  <outline>
    <contour>
      <point x="533" y="804" type="move" name="top"/>
    </contour>
    <contour>
      <point x="563" y="0" type="move" name="bot"/>
    </contour>
    <contour>
      <point x="768" y="0" type="line"/>
      <point x="1041" y="0" type="line"/>
      <point x="1041" y="141" type="line"/>
      <point x="869" y="141" type="line"/>
      <point x="601" y="425" type="line"/>
      <point x="895" y="664" type="line"/>
      <point x="1023" y="664" type="line"/>
      <point x="1023" y="804" type="line"/>
      <point x="567" y="804" type="line"/>
      <point x="567" y="664" type="line"/>
      <point x="704" y="664" type="line"/>
      <point x="380" y="413" type="line"/>
    </contour>
    <component base="lc_ascender_stem" xOffset="-57"/>
  </outline>
</glyph>
<glyph name="m" format="1">
  <advance width="1652"/>
  <unicode hex="006D"/>
  <outline>
    <contour>
      <point x="857" y="805" type="move" name="top"/>
    </contour>
    <contour>
      <point x="826" y="0" type="move" name="bot"/>
    </contour>
    <component base="lc_xheight_curved_stem" xOffset="450"/>
    <component base="lc_xheight_curved_stem" xOffset="-88"/>
    <component base="lc_xheight_stem" xOffset="-74"/>
  </outline>
</glyph>
<glyph name="o" format="1">
  <advance width="1002"/>
  <unicode hex="006F"/>
  <outline>
    <contour>
      <point x="499" y="804" type="move" name="top"/>
    </contour>
    <contour>
      <point x="282" y="0" type="move" name="ogonek"/>
    </contour>
    <contour>
      <point x="501" y="0" type="move" name="bot"/>
    </contour>
    <contour>
      <point x="500" y="130" type="curve" smooth="yes"/>
      <point x="363" y="130"/>
      <point x="268" y="242"/>
      <point x="268" y="403" type="curve" smooth="yes"/>
      <point x="268" y="564"/>
      <point x="363" y="674"/>
      <point x="500" y="674" type="curve" smooth="yes"/>
      <point x="637" y="674"/>
      <point x="732" y="564"/>
      <point x="732" y="403" type="curve" smooth="yes"/>
      <point x="732" y="242"/>
      <point x="637" y="130"/>
    </contour>
    <contour>
      <point x="500" y="-22" type="curve" smooth="yes"/>
      <point x="760" y="-22"/>
      <point x="938" y="152"/>
      <point x="938" y="404" type="curve" smooth="yes"/>
      <point x="938" y="654"/>
      <point x="760" y="826"/>
      <point x="501" y="826" type="curve" smooth="yes"/>
      <point x="242" y="826"/>
      <point x="64" y="655"/>
      <point x="64" y="406" type="curve" smooth="yes"/>
      <point x="64" y="152"/>
      <point x="241" y="-22"/>
    </contour>
  </outline>
</glyph>
<glyph name="q" format="1">
  <advance width="1097"/>
  <unicode hex="0071"/>
  <outline>
    <contour>
      <point x="546" y="-330" type="line"/>
      <point x="1057" y="-330" type="line"/>
      <point x="1057" y="-186" type="line"/>
      <point x="910" y="-186" type="line"/>
      <point x="910" y="664" type="line"/>
      <point x="1057" y="664" type="line"/>
      <point x="1057" y="804" type="line"/>
      <point x="716" y="804" type="line"/>
      <point x="714" y="701" type="line"/>
      <point x="714" y="-186" type="line"/>
      <point x="546" y="-186" type="line"/>
    </contour>
    <component base="lc_bowl_left" xOffset="-84"/>
  </outline>
</glyph>
<glyph name="s" format="1">
  <advance width="879"/>
  <unicode hex="0073"/>
  <outline>
    <contour>
      <point x="416" y="805" type="move" name="top"/>
    </contour>
    <contour>
      <point x="483" y="0" type="move" name="bot"/>
    </contour>
    <contour>
      <point x="510" y="-20" type="curve" smooth="yes"/>
      <point x="663" y="-20"/>
      <point x="808" y="53"/>
      <point x="808" y="233" type="curve" smooth="yes"/>
      <point x="808" y="397"/>
      <point x="702" y="442"/>
      <point x="543" y="479" type="curve" smooth="yes"/>
      <point x="442" y="502" type="line" smooth="yes"/>
      <point x="337" y="526"/>
      <point x="301" y="545"/>
      <point x="303" y="608" type="curve" smooth="yes"/>
      <point x="305" y="662"/>
      <point x="360" y="696"/>
      <point x="436" y="696" type="curve" smooth="yes"/>
      <point x="514" y="696"/>
      <point x="599" y="671"/>
      <point x="630" y="617" type="curve"/>
      <point x="647" y="534" type="line"/>
      <point x="780" y="534" type="line"/>
      <point x="780" y="804" type="line"/>
      <point x="628" y="804" type="line"/>
      <point x="628" y="750" type="line"/>
      <point x="582" y="795"/>
      <point x="496" y="826"/>
      <point x="407" y="826" type="curve" smooth="yes"/>
      <point x="229" y="826"/>
      <point x="105" y="735"/>
      <point x="105" y="590" type="curve" smooth="yes"/>
      <point x="105" y="443"/>
      <point x="199" y="381"/>
      <point x="356" y="346" type="curve" smooth="yes"/>
      <point x="469" y="320" type="line" smooth="yes"/>
      <point x="576" y="296"/>
      <point x="619" y="276"/>
      <point x="618" y="210" type="curve"/>
      <point x="615" y="144"/>
      <point x="560" y="114"/>
      <point x="480" y="114" type="curve" smooth="yes"/>
      <point x="394" y="114"/>
      <point x="291" y="145"/>
      <point x="258" y="204" type="curve"/>
      <point x="244" y="288" type="line"/>
      <point x="114" y="288" type="line"/>
      <point x="114" y="0" type="line"/>
      <point x="265" y="0" type="line"/>
      <point x="265" y="62" type="line"/>
      <point x="323" y="9"/>
      <point x="409" y="-20"/>
    </contour>
  </outline>
</glyph>
<glyph name="t" format="1">
  <advance width="663"/>
  <unicode hex="0074"/>
  <outline>
    <contour>
      <point x="323" y="804" type="move" name="top"/>
    </contour>
    <contour>
      <point x="400" y="5" type="move" name="bot"/>
    </contour>
    <contour>
      <point x="315" y="654" type="move" name="mid"/>
    </contour>
    <contour>
      <point x="415" y="0" type="curve" smooth="yes"/>
      <point x="595" y="0" type="line"/>
      <point x="595" y="141" type="line"/>
      <point x="454" y="141" type="line" smooth="yes"/>
      <point x="381" y="141"/>
      <point x="361" y="194"/>
      <point x="361" y="279" type="curve" smooth="yes"/>
      <point x="361" y="664" type="line"/>
      <point x="570" y="664" type="line"/>
      <point x="574" y="804" type="line"/>
      <point x="361" y="804" type="line"/>
      <point x="361" y="1136" type="line"/>
      <point x="167" y="1108" type="line"/>
      <point x="167" y="804" type="line"/>
      <point x="40" y="804" type="line"/>
      <point x="40" y="664" type="line"/>
      <point x="165" y="664" type="line"/>
      <point x="165" y="263" type="line" smooth="yes"/>
      <point x="165" y="104"/>
      <point x="213" y="0"/>
    </contour>
  </outline>
</glyph>
<glyph name="u" format="1">
  <advance width="1071"/>
  <unicode hex="0075"/>
  <outline>
    <contour>
      <point x="492" y="804" type="move" name="top"/>
    </contour>
    <contour>
      <point x="838" y="0" type="move" name="ogonek"/>
    </contour>
    <contour>
      <point x="544" y="0" type="move" name="bot"/>
    </contour>
    <contour>
      <point x="422" y="-19" type="curve" smooth="yes"/>
      <point x="522" y="-19"/>
      <point x="611" y="22"/>
      <point x="697" y="96" type="curve"/>
      <point x="701" y="0" type="line"/>
      <point x="1032" y="0" type="line"/>
      <point x="1032" y="141" type="line"/>
      <point x="893" y="141" type="line"/>
      <point x="893" y="804" type="line"/>
      <point x="556" y="804" type="line"/>
      <point x="556" y="664" type="line"/>
      <point x="697" y="664" type="line"/>
      <point x="697" y="239" type="line"/>
      <point x="629" y="168"/>
      <point x="554" y="130"/>
      <point x="476" y="130" type="curve" smooth="yes"/>
      <point x="396" y="130"/>
      <point x="342" y="187"/>
      <point x="342" y="292" type="curve" smooth="yes"/>
      <point x="342" y="804" type="line"/>
      <point x="18" y="804" type="line"/>
      <point x="18" y="664" type="line"/>
      <point x="146" y="664" type="line"/>
      <point x="146" y="269" type="line" smooth="yes"/>
      <point x="146" y="85"/>
      <point x="245" y="-19"/>
    </contour>
  </outline>
</glyph>
<glyph name="v" format="1">
  <advance width="1040"/>
  <unicode hex="0076"/>
  <outline>
    <contour>
      <point x="433" y="0" type="line"/>
      <point x="612" y="0" type="line"/>
      <point x="906" y="664" type="line"/>
      <point x="1035" y="664" type="line"/>
      <point x="1035" y="804" type="line"/>
      <point x="611" y="804" type="line"/>
      <point x="611" y="664" type="line"/>
      <point x="727" y="664" type="line"/>
      <point x="538" y="209" type="line"/>
      <point x="352" y="664" type="line"/>
      <point x="464" y="664" type="line"/>
      <point x="464" y="804" type="line"/>
      <point x="5" y="804" type="line"/>
      <point x="5" y="664" type="line"/>
      <point x="135" y="664" type="line"/>
    </contour>
  </outline>
</glyph>
<glyph name="w" format="1">
  <advance width="1432"/>
  <unicode hex="0077"/>
  <outline>
    <contour>
      <point x="729" y="805" type="move" name="top"/>
    </contour>
    <contour>
      <point x="724" y="0" type="move" name="bot"/>
    </contour>
    <contour>
      <point x="353" y="0" type="line"/>
      <point x="543" y="0" type="line"/>
      <point x="724" y="513" type="line"/>
      <point x="906" y="0" type="line"/>
      <point x="1096" y="0" type="line"/>
      <point x="1324" y="664" type="line"/>
      <point x="1432" y="664" type="line"/>
      <point x="1432" y="804" type="line"/>
      <point x="1043" y="804" type="line"/>
      <point x="1043" y="664" type="line"/>
      <point x="1146" y="664" type="line"/>
      <point x="1001" y="192" type="line"/>
      <point x="827" y="664" type="line"/>
      <point x="930" y="664" type="line"/>
      <point x="930" y="804" type="line"/>
      <point x="533" y="804" type="line"/>
      <point x="533" y="664" type="line"/>
      <point x="629" y="664" type="line"/>
      <point x="458" y="196" type="line"/>
      <point x="311" y="664" type="line"/>
      <point x="409" y="664" type="line"/>
      <point x="409" y="804" type="line"/>
      <point x="0" y="804" type="line"/>
      <point x="0" y="664" type="line"/>
      <point x="118" y="664" type="line"/>
    </contour>
  </outline>
</glyph>
<glyph name="x" format="1">
  <advance width="1023"/>
  <unicode hex="0078"/>
  <outline>
    <contour>
      <point x="45" y="0" type="line"/>
      <point x="458" y="0" type="line"/>
      <point x="458" y="141" type="line"/>
      <point x="350" y="141" type="line"/>
      <point x="505" y="316" type="line"/>
      <point x="669" y="141" type="line"/>
      <point x="558" y="141" type="line"/>
      <point x="558" y="0" type="line"/>
      <point x="978" y="0" type="line"/>
      <point x="978" y="141" type="line"/>
      <point x="872" y="141" type="line"/>
      <point x="617" y="420" type="line"/>
      <point x="843" y="664" type="line"/>
      <point x="978" y="664" type="line"/>
      <point x="978" y="804" type="line"/>
      <point x="569" y="804" type="line"/>
      <point x="569" y="664" type="line"/>
      <point x="663" y="664" type="line"/>
      <point x="522" y="502" type="line"/>
      <point x="377" y="664" type="line"/>
      <point x="473" y="664" type="line"/>
      <point x="473" y="804" type="line"/>
      <point x="46" y="804" type="line"/>
      <point x="46" y="664" type="line"/>
      <point x="175" y="664" type="line"/>
      <point x="412" y="409" type="line"/>
      <point x="167" y="141" type="line"/>
      <point x="45" y="141" type="line"/>
    </contour>
  </outline>
</glyph>
<glyph name="y" format="1">
  <advance width="1049"/>
  <unicode hex="0079"/>
  <outline>
    <contour>
      <point x="538" y="805" type="move" name="top"/>
    </contour>
    <contour>
      <point x="524" y="0" type="move" name="bot"/>
    </contour>
    <contour>
      <point x="187" y="-358" type="line"/>
      <point x="283" y="-358" type="line" smooth="yes"/>
      <point x="504" y="-358"/>
      <point x="557" y="-264"/>
      <point x="642" y="-45" type="curve" smooth="yes"/>
      <point x="918" y="664" type="line"/>
      <point x="1040" y="664" type="line"/>
      <point x="1040" y="804" type="line"/>
      <point x="605" y="804" type="line"/>
      <point x="605" y="664" type="line"/>
      <point x="719" y="664" type="line"/>
      <point x="548" y="164" type="line"/>
      <point x="344" y="664" type="line"/>
      <point x="450" y="664" type="line"/>
      <point x="450" y="804" type="line"/>
      <point x="20" y="804" type="line"/>
      <point x="20" y="664" type="line"/>
      <point x="145" y="664" type="line"/>
      <point x="418" y="35" type="line"/>
      <point x="499" y="35" type="line"/>
      <point x="462" y="-59" type="line" smooth="yes"/>
      <point x="423" y="-161"/>
      <point x="390" y="-206"/>
      <point x="274" y="-206" type="curve" smooth="yes"/>
      <point x="187" y="-206" type="line"/>
    </contour>
  </outline>
</glyph>
<glyph name="z" format="1">
  <advance width="904"/>
  <unicode hex="007A"/>
  <outline>
    <contour>
      <point x="481" y="804" type="move" name="top"/>
    </contour>
    <contour>
      <point x="452" y="0" type="move" name="bot"/>
    </contour>
    <contour>
      <point x="97" y="0" type="line"/>
      <point x="830" y="0" type="line"/>
      <point x="830" y="298" type="line"/>
      <point x="679" y="298" type="line"/>
      <point x="679" y="133" type="line"/>
      <point x="327" y="133" type="line"/>
      <point x="819" y="665" type="line"/>
      <point x="819" y="804" type="line"/>
      <point x="98" y="804" type="line"/>
      <point x="98" y="517" type="line"/>
      <point x="244" y="517" type="line"/>
      <point x="244" y="670" type="line"/>
      <point x="585" y="670" type="line"/>
      <point x="97" y="135" type="line"/>
    </contour>
  </outline>
</glyph>
<glyph name="braceleft" format="1">
  <advance width="645"/>
  <unicode hex="007B"/>
  <outline>
    <contour>
      <point x="498" y="-218" type="curve" smooth="yes"/>
      <point x="581" y="-218" type="line"/>
      <point x="581" y="-91" type="line"/>
      <point x="415" y="-91"/>
      <point x="402" y="-60"/>
      <point x="402" y="140" type="curve" smooth="yes"/>
      <point x="402" y="376"/>
      <point x="362" y="485"/>
      <point x="255" y="516" type="curve"/>
      <point x="362" y="547"/>
      <point x="402" y="656"/>
      <point x="402" y="892" type="curve" smooth="yes"/>
      <point x="402" y="1092"/>
      <point x="415" y="1122"/>
      <point x="581" y="1122" type="curve"/>
      <point x="581" y="1249" type="line"/>
      <point x="498" y="1249" type="line" smooth="yes"/>
      <point x="234" y="1249"/>
      <point x="223" y="1115"/>
      <point x="223" y="831" type="curve" smooth="yes"/>
      <point x="223" y="645"/>
      <point x="203" y="554"/>
      <point x="61" y="554" type="curve"/>
      <point x="61" y="478" type="line"/>
      <point x="203" y="478"/>
      <point x="223" y="387"/>
      <point x="223" y="201" type="curve" smooth="yes"/>
      <point x="223" y="-84"/>
      <point x="234" y="-218"/>
    </contour>
  </outline>
</glyph>
<glyph name="braceright" format="1">
  <advance width="675"/>
  <unicode hex="007D"/>
  <outline>
    <contour>
      <point x="109" y="-218" type="line"/>
      <point x="192" y="-218" type="line" smooth="yes"/>
      <point x="457" y="-218"/>
      <point x="467" y="-84"/>
      <point x="467" y="201" type="curve" smooth="yes"/>
      <point x="467" y="387"/>
      <point x="488" y="478"/>
      <point x="629" y="478" type="curve"/>
      <point x="629" y="554" type="line"/>
      <point x="488" y="554"/>
      <point x="467" y="645"/>
      <point x="467" y="831" type="curve" smooth="yes"/>
      <point x="467" y="1115"/>
      <point x="457" y="1249"/>
      <point x="192" y="1249" type="curve" smooth="yes"/>
      <point x="109" y="1249" type="line"/>
      <point x="109" y="1122" type="line"/>
      <point x="275" y="1122"/>
      <point x="289" y="1092"/>
      <point x="289" y="892" type="curve" smooth="yes"/>
      <point x="289" y="656"/>
      <point x="329" y="547"/>
      <point x="436" y="516" type="curve"/>
      <point x="329" y="485"/>
      <point x="289" y="376"/>
      <point x="289" y="140" type="curve" smooth="yes"/>
      <point x="289" y="-60"/>
      <point x="275" y="-91"/>
      <point x="109" y="-91" type="curve"/>
    </contour>
  </outline>
</glyph>
<glyph name="asciitilde" format="1">
  <advance width="1156"/>
  <unicode hex="007E"/>
  <outline>
    <contour>
      <point x="810" y="461" type="curve" smooth="yes"/>
      <point x="906" y="461"/>
      <point x="987" y="508"/>
      <point x="1055" y="588" type="curve"/>
      <point x="1024" y="731" type="line"/>
      <point x="959" y="666"/>
      <point x="895" y="625"/>
      <point x="817" y="625" type="curve" smooth="yes"/>
      <point x="705" y="625"/>
      <point x="529" y="757"/>
      <point x="356" y="757" type="curve" smooth="yes"/>
      <point x="254" y="757"/>
      <point x="172" y="714"/>
      <point x="102" y="627" type="curve"/>
      <point x="130" y="489" type="line"/>
      <point x="202" y="562"/>
      <point x="264" y="602"/>
      <point x="345" y="602" type="curve" smooth="yes"/>
      <point x="471" y="602"/>
      <point x="644" y="461"/>
    </contour>
  </outline>
</glyph>
<glyph name="cent" format="1">
  <advance width="964"/>
  <unicode hex="00A2"/>
  <outline>
    <contour>
      <point x="276" y="-381" type="line"/>
      <point x="768" y="1133" type="line"/>
      <point x="699" y="1158" type="line"/>
      <point x="208" y="-357" type="line"/>
    </contour>
    <component base="c"/>
  </outline>
</glyph>
<glyph name="sterling" format="1">
  <advance width="1022"/>
  <unicode hex="00A3"/>
  <outline>
    <contour>
      <point x="256" y="-18" type="curve" smooth="yes"/>
      <point x="330" y="-18"/>
      <point x="414" y="27"/>
      <point x="465" y="102" type="curve"/>
      <point x="563" y="29"/>
      <point x="654" y="-17"/>
      <point x="742" y="-17" type="curve" smooth="yes"/>
      <point x="898" y="-17"/>
      <point x="972" y="82"/>
      <point x="977" y="282" type="curve" smooth="yes"/>
      <point x="977" y="286"/>
      <point x="977" y="303"/>
      <point x="977" y="308" type="curve"/>
      <point x="857" y="308" type="line"/>
      <point x="853" y="184"/>
      <point x="808" y="138"/>
      <point x="743" y="138" type="curve" smooth="yes"/>
      <point x="688" y="138"/>
      <point x="619" y="171"/>
      <point x="546" y="217" type="curve"/>
      <point x="571" y="272"/>
      <point x="584" y="326"/>
      <point x="584" y="380" type="curve" smooth="yes"/>
      <point x="584" y="435"/>
      <point x="571" y="491"/>
      <point x="544" y="547" type="curve"/>
      <point x="850" y="547" type="line"/>
      <point x="850" y="666" type="line"/>
      <point x="489" y="666" type="line"/>
      <point x="448" y="747"/>
      <point x="411" y="823"/>
      <point x="411" y="898" type="curve" smooth="yes"/>
      <point x="411" y="995"/>
      <point x="490" y="1051"/>
      <point x="599" y="1051" type="curve" smooth="yes"/>
      <point x="702" y="1051"/>
      <point x="757" y="990"/>
      <point x="757" y="877" type="curve"/>
      <point x="920" y="877" type="line"/>
      <point x="919" y="1086"/>
      <point x="797" y="1202"/>
      <point x="592" y="1202" type="curve" smooth="yes"/>
      <point x="367" y="1202"/>
      <point x="220" y="1081"/>
      <point x="220" y="881" type="curve" smooth="yes"/>
      <point x="220" y="822"/>
      <point x="242" y="743"/>
      <point x="281" y="666" type="curve"/>
      <point x="138" y="666" type="line"/>
      <point x="138" y="547" type="line"/>
      <point x="345" y="547" type="line"/>
      <point x="403" y="464"/>
      <point x="439" y="382"/>
      <point x="439" y="319" type="curve" smooth="yes"/>
      <point x="439" y="306"/>
      <point x="436" y="294"/>
      <point x="434" y="282" type="curve"/>
      <point x="378" y="328"/>
      <point x="308" y="355"/>
      <point x="247" y="355" type="curve" smooth="yes"/>
      <point x="136" y="355"/>
      <point x="56" y="284"/>
      <point x="56" y="160" type="curve" smooth="yes"/>
      <point x="56" y="47"/>
      <point x="142" y="-18"/>
    </contour>
    <contour>
      <point x="255" y="92" type="curve" smooth="yes"/>
      <point x="215" y="92"/>
      <point x="185" y="117"/>
      <point x="185" y="160" type="curve" smooth="yes"/>
      <point x="185" y="206"/>
      <point x="216" y="231"/>
      <point x="259" y="231" type="curve" smooth="yes"/>
      <point x="294" y="231"/>
      <point x="342" y="209"/>
      <point x="384" y="175" type="curve"/>
      <point x="357" y="122"/>
      <point x="304" y="92"/>
    </contour>
  </outline>
</glyph>
<glyph name="yen" format="1">
  <advance width="1308"/>
  <unicode hex="00A5"/>
  <outline>
    <contour>
      <point x="299" y="280" type="line"/>
      <point x="1010" y="280" type="line"/>
      <point x="1010" y="398" type="line"/>
      <point x="299" y="398" type="line"/>
    </contour>
    <contour>
      <point x="299" y="487" type="line"/>
      <point x="1010" y="487" type="line"/>
      <point x="1010" y="605" type="line"/>
      <point x="299" y="605" type="line"/>
    </contour>
    <component base="Y"/>
  </outline>
</glyph>
<glyph name="brokenbar" format="1">
  <advance width="467"/>
  <unicode hex="00A6"/>
  <outline>
    <contour>
      <point x="175" y="-291" type="line"/>
      <point x="297" y="-291" type="line"/>
      <point x="297" y="344" type="line"/>
      <point x="175" y="344" type="line"/>
    </contour>
    <contour>
      <point x="175" y="620" type="line"/>
      <point x="297" y="620" type="line"/>
      <point x="297" y="1245" type="line"/>
      <point x="175" y="1245" type="line"/>
    </contour>
  </outline>
</glyph>
<glyph name="section" format="1">
  <advance width="906"/>
  <unicode hex="00A7"/>
  <outline>
    <contour>
      <point x="147" y="-22" type="curve" smooth="yes"/>
      <point x="147" y="-126"/>
      <point x="238" y="-246"/>
      <point x="479" y="-246" type="curve" smooth="yes"/>
      <point x="672" y="-246"/>
      <point x="794" y="-127"/>
      <point x="794" y="45" type="curve" smooth="yes"/>
      <point x="794" y="120"/>
      <point x="761" y="188"/>
      <point x="700" y="236" type="curve"/>
      <point x="782" y="288"/>
      <point x="832" y="368"/>
      <point x="832" y="456" type="curve" smooth="yes"/>
      <point x="832" y="603"/>
      <point x="711" y="669"/>
      <point x="525" y="751" type="curve" smooth="yes"/>
      <point x="396" y="804"/>
      <point x="294" y="843"/>
      <point x="294" y="956" type="curve" smooth="yes"/>
      <point x="294" y="1061"/>
      <point x="372" y="1112"/>
      <point x="475" y="1112" type="curve" smooth="yes"/>
      <point x="589" y="1112"/>
      <point x="656" y="1006"/>
      <point x="679" y="887" type="curve"/>
      <point x="753" y="894"/>
      <point x="794" y="941"/>
      <point x="794" y="1000" type="curve" smooth="yes"/>
      <point x="794" y="1107"/>
      <point x="691" y="1215"/>
      <point x="470" y="1215" type="curve" smooth="yes"/>
      <point x="290" y="1215"/>
      <point x="143" y="1113"/>
      <point x="143" y="948" type="curve" smooth="yes"/>
      <point x="143" y="854"/>
      <point x="181" y="783"/>
      <point x="243" y="737" type="curve"/>
      <point x="168" y="692"/>
      <point x="110" y="629"/>
      <point x="110" y="532" type="curve" smooth="yes"/>
      <point x="110" y="388"/>
      <point x="216" y="316"/>
      <point x="376" y="247" type="curve" smooth="yes"/>
      <point x="568" y="162"/>
      <point x="656" y="120"/>
      <point x="653" y="5" type="curve" smooth="yes"/>
      <point x="651" y="-84"/>
      <point x="579" y="-140"/>
      <point x="484" y="-140" type="curve" smooth="yes"/>
      <point x="364" y="-140"/>
      <point x="279" y="-39"/>
      <point x="256" y="105" type="curve"/>
      <point x="189" y="92"/>
      <point x="147" y="47"/>
    </contour>
    <contour>
      <point x="616" y="292" type="curve"/>
      <point x="559" y="321"/>
      <point x="505" y="345"/>
      <point x="445" y="372" type="curve" smooth="yes"/>
      <point x="300" y="438"/>
      <point x="245" y="474"/>
      <point x="245" y="568" type="curve" smooth="yes"/>
      <point x="245" y="626"/>
      <point x="276" y="658"/>
      <point x="317" y="686" type="curve"/>
      <point x="377" y="653"/>
      <point x="438" y="628"/>
      <point x="499" y="601" type="curve" smooth="yes"/>
      <point x="637" y="539"/>
      <point x="690" y="494"/>
      <point x="690" y="412" type="curve" smooth="yes"/>
      <point x="690" y="362"/>
      <point x="664" y="322"/>
    </contour>
  </outline>
</glyph>
<glyph name="dieresis" format="1">
  <advance width="661"/>
  <unicode hex="00A8"/>
  <outline>
    <contour>
      <point x="337" y="805" type="move" name="_top"/>
    </contour>
    <contour>
      <point x="158" y="928" type="curve" smooth="yes"/>
      <point x="230" y="928"/>
      <point x="274" y="981"/>
      <point x="273" y="1039" type="curve"/>
      <point x="273" y="1109"/>
      <point x="220" y="1149"/>
      <point x="158" y="1149" type="curve" smooth="yes"/>
      <point x="96" y="1149"/>
      <point x="42" y="1102"/>
      <point x="43" y="1039" type="curve" smooth="yes"/>
      <point x="43" y="978"/>
      <point x="97" y="928"/>
    </contour>
    <contour>
      <point x="516" y="929" type="curve" smooth="yes"/>
      <point x="588" y="929"/>
      <point x="632" y="982"/>
      <point x="631" y="1040" type="curve"/>
      <point x="631" y="1110"/>
      <point x="578" y="1150"/>
      <point x="516" y="1150" type="curve" smooth="yes"/>
      <point x="454" y="1150"/>
      <point x="400" y="1103"/>
      <point x="401" y="1040" type="curve" smooth="yes"/>
      <point x="401" y="979"/>
      <point x="455" y="929"/>
    </contour>
  </outline>
</glyph>
<glyph name="copyright" format="1">
  <advance width="1443"/>
  <unicode hex="00A9"/>
  <outline>
    <contour>
      <point x="714" y="283" type="curve" smooth="yes"/>
      <point x="839" y="283"/>
      <point x="941" y="335"/>
      <point x="994" y="423" type="curve"/>
      <point x="913" y="487" type="line"/>
      <point x="873" y="423"/>
      <point x="803" y="386"/>
      <point x="720" y="386" type="curve" smooth="yes"/>
      <point x="603" y="386"/>
      <point x="537" y="473"/>
      <point x="537" y="599" type="curve" smooth="yes"/>
      <point x="537" y="725"/>
      <point x="603" y="809"/>
      <point x="721" y="809" type="curve" smooth="yes"/>
      <point x="802" y="809"/>
      <point x="860" y="761"/>
      <point x="880" y="680" type="curve"/>
      <point x="985" y="680" type="line"/>
      <point x="985" y="899" type="line"/>
      <point x="877" y="899" type="line"/>
      <point x="878" y="837" type="line"/>
      <point x="849" y="886"/>
      <point x="776" y="911"/>
      <point x="701" y="911" type="curve" smooth="yes"/>
      <point x="529" y="911"/>
      <point x="404" y="777"/>
      <point x="404" y="600" type="curve" smooth="yes"/>
      <point x="404" y="415"/>
      <point x="524" y="283"/>
    </contour>
    <contour>
      <point x="709" y="82" type="curve" smooth="yes"/>
      <point x="412" y="82"/>
      <point x="215" y="295"/>
      <point x="215" y="589" type="curve" smooth="yes"/>
      <point x="215" y="887"/>
      <point x="412" y="1101"/>
      <point x="710" y="1101" type="curve" smooth="yes"/>
      <point x="1009" y="1101"/>
      <point x="1205" y="887"/>
      <point x="1206" y="589" type="curve" smooth="yes"/>
      <point x="1205" y="295"/>
      <point x="1008" y="82"/>
    </contour>
    <contour>
      <point x="710" y="-19" type="curve" smooth="yes"/>
      <point x="1082" y="-19"/>
      <point x="1334" y="232"/>
      <point x="1334" y="591" type="curve" smooth="yes"/>
      <point x="1334" y="950"/>
      <point x="1082" y="1202"/>
      <point x="710" y="1202" type="curve" smooth="yes"/>
      <point x="339" y="1202"/>
      <point x="88" y="950"/>
      <point x="88" y="591" type="curve" smooth="yes"/>
      <point x="88" y="232"/>
      <point x="339" y="-19"/>
    </contour>
  </outline>
</glyph>
<glyph name="ordfeminine" format="1">
  <advance width="708"/>
  <unicode hex="00AA"/>
  <outline>
    <contour>
      <point x="275" y="508" type="curve" smooth="yes"/>
      <point x="348" y="508"/>
      <point x="418" y="535"/>
      <point x="492" y="594" type="curve"/>
      <point x="490" y="523" type="line"/>
      <point x="702" y="523" type="line"/>
      <point x="702" y="626" type="line"/>
      <point x="609" y="626" type="line"/>
      <point x="609" y="963" type="line" smooth="yes"/>
      <point x="609" y="1119"/>
      <point x="497" y="1174"/>
      <point x="342" y="1174" type="curve" smooth="yes"/>
      <point x="225" y="1174"/>
      <point x="137" y="1135"/>
      <point x="81" y="1062" type="curve"/>
      <point x="183" y="996" type="line"/>
      <point x="215" y="1044"/>
      <point x="265" y="1070"/>
      <point x="333" y="1070" type="curve" smooth="yes"/>
      <point x="426" y="1070"/>
      <point x="478" y="1028"/>
      <point x="478" y="954" type="curve" smooth="yes"/>
      <point x="478" y="875" type="line"/>
      <point x="423" y="894"/>
      <point x="363" y="904"/>
      <point x="303" y="904" type="curve" smooth="yes"/>
      <point x="153" y="904"/>
      <point x="52" y="833"/>
      <point x="52" y="694" type="curve" smooth="yes"/>
      <point x="52" y="587"/>
      <point x="153" y="508"/>
    </contour>
    <contour>
      <point x="295" y="602" type="curve" smooth="yes"/>
      <point x="229" y="602"/>
      <point x="180" y="638"/>
      <point x="180" y="699" type="curve" smooth="yes"/>
      <point x="180" y="775"/>
      <point x="235" y="815"/>
      <point x="327" y="815" type="curve" smooth="yes"/>
      <point x="379" y="815"/>
      <point x="430" y="798"/>
      <point x="478" y="786" type="curve"/>
      <point x="478" y="675" type="line"/>
      <point x="429" y="630"/>
      <point x="362" y="602"/>
    </contour>
  </outline>
</glyph>
<glyph name="guillemotleft" format="1">
  <advance width="1037"/>
  <unicode hex="00AB"/>
  <outline>
    <contour>
      <point x="386" y="119" type="line"/>
      <point x="523" y="119" type="line"/>
      <point x="348" y="526" type="line"/>
      <point x="523" y="933" type="line"/>
      <point x="386" y="933" type="line"/>
      <point x="103" y="525" type="line"/>
    </contour>
    <contour>
      <point x="781" y="119" type="line"/>
      <point x="919" y="119" type="line"/>
      <point x="743" y="526" type="line"/>
      <point x="919" y="933" type="line"/>
      <point x="781" y="933" type="line"/>
      <point x="498" y="525" type="line"/>
    </contour>
  </outline>
</glyph>
<glyph name="logicalnot" format="1">
  <advance width="1164"/>
  <unicode hex="00AC"/>
  <outline>
    <contour>
      <point x="908" y="289" type="line"/>
      <point x="1025" y="289" type="line"/>
      <point x="1025" y="823" type="line"/>
      <point x="88" y="823" type="line"/>
      <point x="88" y="682" type="line"/>
      <point x="908" y="682" type="line"/>
    </contour>
  </outline>
</glyph>
<glyph name="registered" format="1">
  <advance width="1443"/>
  <unicode hex="00AE"/>
  <outline>
    <contour>
      <point x="439" y="288" type="line"/>
      <point x="710" y="288" type="line"/>
      <point x="710" y="359" type="line"/>
      <point x="626" y="359" type="line"/>
      <point x="626" y="578" type="line"/>
      <point x="720" y="578" type="line"/>
      <point x="873" y="288" type="line"/>
      <point x="1024" y="288" type="line"/>
      <point x="1024" y="359" type="line"/>
      <point x="941" y="359" type="line"/>
      <point x="815" y="590" type="line"/>
      <point x="903" y="610"/>
      <point x="954" y="669"/>
      <point x="954" y="752" type="curve" smooth="yes"/>
      <point x="954" y="858"/>
      <point x="869" y="915"/>
      <point x="742" y="915" type="curve" smooth="yes"/>
      <point x="439" y="915" type="line"/>
      <point x="439" y="844" type="line"/>
      <point x="526" y="844" type="line"/>
      <point x="526" y="359" type="line"/>
      <point x="439" y="359" type="line"/>
    </contour>
    <contour>
      <point x="626" y="652" type="line"/>
      <point x="626" y="844" type="line"/>
      <point x="739" y="844" type="line" smooth="yes"/>
      <point x="812" y="844"/>
      <point x="853" y="810"/>
      <point x="853" y="751" type="curve" smooth="yes"/>
      <point x="853" y="685"/>
      <point x="807" y="652"/>
      <point x="738" y="652" type="curve" smooth="yes"/>
    </contour>
    <contour>
      <point x="717" y="82" type="curve" smooth="yes"/>
      <point x="420" y="82"/>
      <point x="223" y="295"/>
      <point x="223" y="589" type="curve" smooth="yes"/>
      <point x="223" y="887"/>
      <point x="420" y="1101"/>
      <point x="718" y="1101" type="curve" smooth="yes"/>
      <point x="1017" y="1101"/>
      <point x="1213" y="887"/>
      <point x="1214" y="589" type="curve" smooth="yes"/>
      <point x="1213" y="295"/>
      <point x="1016" y="82"/>
    </contour>
    <contour>
      <point x="718" y="-19" type="curve" smooth="yes"/>
      <point x="1090" y="-19"/>
      <point x="1342" y="232"/>
      <point x="1342" y="591" type="curve" smooth="yes"/>
      <point x="1342" y="950"/>
      <point x="1090" y="1202"/>
      <point x="718" y="1202" type="curve" smooth="yes"/>
      <point x="347" y="1202"/>
      <point x="96" y="950"/>
      <point x="96" y="591" type="curve" smooth="yes"/>
      <point x="96" y="232"/>
      <point x="347" y="-19"/>
    </contour>
  </outline>
</glyph>
<glyph name="degree" format="1">
  <advance width="653"/>
  <unicode hex="00B0"/>
  <outline>
    <contour>
      <point x="327" y="770" type="curve" smooth="yes"/>
      <point x="227" y="770"/>
      <point x="161" y="840"/>
      <point x="161" y="945" type="curve"/>
      <point x="161" y="1051"/>
      <point x="227" y="1121"/>
      <point x="327" y="1121" type="curve" smooth="yes"/>
      <point x="427" y="1121"/>
      <point x="493" y="1051"/>
      <point x="493" y="945" type="curve" smooth="yes"/>
      <point x="493" y="839"/>
      <point x="427" y="770"/>
    </contour>
    <contour>
      <point x="327" y="688" type="curve" smooth="yes"/>
      <point x="481" y="688"/>
      <point x="590" y="794"/>
      <point x="590" y="944" type="curve" smooth="yes"/>
      <point x="590" y="1094"/>
      <point x="481" y="1199"/>
      <point x="327" y="1199" type="curve" smooth="yes"/>
      <point x="173" y="1199"/>
      <point x="64" y="1094"/>
      <point x="64" y="944" type="curve" smooth="yes"/>
      <point x="64" y="794"/>
      <point x="173" y="688"/>
    </contour>
  </outline>
</glyph>
<glyph name="plusminus" format="1">
  <advance width="1139"/>
  <unicode hex="00B1"/>
  <outline>
    <contour>
      <point x="495" y="305" type="line"/>
      <point x="642" y="305" type="line"/>
      <point x="642" y="653" type="line"/>
      <point x="1009" y="653" type="line"/>
      <point x="1009" y="799" type="line"/>
      <point x="642" y="799" type="line"/>
      <point x="642" y="1152" type="line"/>
      <point x="495" y="1152" type="line"/>
      <point x="495" y="799" type="line"/>
      <point x="130" y="799" type="line"/>
      <point x="130" y="653" type="line"/>
      <point x="495" y="653" type="line"/>
    </contour>
    <contour>
      <point x="130" y="0" type="line"/>
      <point x="1009" y="0" type="line"/>
      <point x="1009" y="145" type="line"/>
      <point x="130" y="145" type="line"/>
    </contour>
  </outline>
</glyph>
<glyph name="twosuperior" format="1">
  <advance width="906"/>
  <unicode hex="00B2"/>
  <outline>
    <contour>
      <point x="199" y="453" type="line"/>
      <point x="795" y="453" type="line"/>
      <point x="794" y="733" type="line"/>
      <point x="689" y="733" type="line"/>
      <point x="689" y="560" type="line"/>
      <point x="367" y="560" type="line"/>
      <point x="588" y="765" type="line" smooth="yes"/>
      <point x="687" y="857"/>
      <point x="772" y="956"/>
      <point x="772" y="1059" type="curve" smooth="yes"/>
      <point x="772" y="1182"/>
      <point x="693" y="1305"/>
      <point x="490" y="1305" type="curve" smooth="yes"/>
      <point x="308" y="1305"/>
      <point x="184" y="1205"/>
      <point x="184" y="1048" type="curve" smooth="yes"/>
      <point x="184" y="1030"/>
      <point x="190" y="980"/>
      <point x="201" y="944" type="curve"/>
      <point x="329" y="944" type="line"/>
      <point x="319" y="975"/>
      <point x="315" y="1006"/>
      <point x="315" y="1035" type="curve" smooth="yes"/>
      <point x="315" y="1141"/>
      <point x="375" y="1199"/>
      <point x="488" y="1199" type="curve" smooth="yes"/>
      <point x="595" y="1199"/>
      <point x="638" y="1141"/>
      <point x="639" y="1058" type="curve" smooth="yes"/>
      <point x="641" y="996"/>
      <point x="574" y="921"/>
      <point x="499" y="849" type="curve" smooth="yes"/>
      <point x="198" y="562" type="line"/>
    </contour>
  </outline>
</glyph>
<glyph name="threesuperior" format="1">
  <advance width="882"/>
  <unicode hex="00B3"/>
  <outline>
    <contour>
      <point x="459" y="438" type="curve" smooth="yes"/>
      <point x="649" y="438"/>
      <point x="765" y="536"/>
      <point x="765" y="695" type="curve" smooth="yes"/>
      <point x="765" y="800"/>
      <point x="698" y="869"/>
      <point x="588" y="895" type="curve"/>
      <point x="678" y="922"/>
      <point x="734" y="991"/>
      <point x="734" y="1083" type="curve" smooth="yes"/>
      <point x="734" y="1219"/>
      <point x="624" y="1307"/>
      <point x="449" y="1307" type="curve" smooth="yes"/>
      <point x="299" y="1307"/>
      <point x="193" y="1231"/>
      <point x="165" y="1108" type="curve"/>
      <point x="284" y="1076" type="line"/>
      <point x="299" y="1151"/>
      <point x="359" y="1197"/>
      <point x="448" y="1197" type="curve" smooth="yes"/>
      <point x="537" y="1197"/>
      <point x="595" y="1149"/>
      <point x="595" y="1079" type="curve" smooth="yes"/>
      <point x="595" y="989"/>
      <point x="546" y="947"/>
      <point x="392" y="945" type="curve"/>
      <point x="396" y="835" type="line"/>
      <point x="559" y="832"/>
      <point x="620" y="793"/>
      <point x="623" y="694" type="curve" smooth="yes"/>
      <point x="625" y="603"/>
      <point x="561" y="548"/>
      <point x="460" y="548" type="curve" smooth="yes"/>
      <point x="363" y="548"/>
      <point x="298" y="600"/>
      <point x="276" y="691" type="curve"/>
      <point x="156" y="659" type="line"/>
      <point x="176" y="522"/>
      <point x="291" y="438"/>
    </contour>
  </outline>
</glyph>
<glyph name="acute" format="1">
  <advance width="579"/>
  <unicode hex="00B4"/>
  <outline>
    <contour>
      <point x="269" y="805" type="move" name="_top"/>
    </contour>
    <contour>
      <point x="184" y="903" type="line"/>
      <point x="316" y="903" type="line"/>
      <point x="498" y="1184" type="line"/>
      <point x="283" y="1184" type="line"/>
    </contour>
  </outline>
</glyph>
<glyph name="paragraph" format="1">
  <advance width="1133"/>
  <unicode hex="00B6"/>
  <outline>
    <contour>
      <point x="475" y="0" type="line"/>
      <point x="1060" y="0" type="line"/>
      <point x="1060" y="140" type="line"/>
      <point x="910" y="140" type="line"/>
      <point x="910" y="1015" type="line"/>
      <point x="1048" y="1015" type="line"/>
      <point x="1048" y="1152" type="line"/>
      <point x="494" y="1152" type="line" smooth="yes"/>
      <point x="206" y="1152"/>
      <point x="93" y="989"/>
      <point x="93" y="792" type="curve" smooth="yes"/>
      <point x="93" y="597"/>
      <point x="228" y="434"/>
      <point x="458" y="434" type="curve" smooth="yes"/>
      <point x="717" y="434" type="line"/>
      <point x="717" y="140" type="line"/>
      <point x="475" y="140" type="line"/>
    </contour>
    <contour>
      <point x="717" y="577" type="line"/>
      <point x="516" y="577" type="line"/>
      <point x="516" y="1015" type="line"/>
      <point x="717" y="1015" type="line"/>
    </contour>
  </outline>
</glyph>
<glyph name="cedilla" format="1">
  <advance width="594"/>
  <unicode hex="00B8"/>
  <outline>
    <contour>
      <point x="272" y="0" type="move" name="_bot"/>
    </contour>
    <contour>
      <point x="274" y="-389" type="curve" smooth="yes"/>
      <point x="370" y="-389"/>
      <point x="430" y="-341"/>
      <point x="430" y="-261" type="curve" smooth="yes"/>
      <point x="430" y="-197"/>
      <point x="358" y="-134"/>
      <point x="287" y="-124" type="curve"/>
      <point x="313" y="6" type="line"/>
      <point x="237" y="6" type="line"/>
      <point x="178" y="-157" type="line"/>
      <point x="242" y="-164"/>
      <point x="292" y="-196"/>
      <point x="292" y="-237" type="curve" smooth="yes"/>
      <point x="292" y="-277"/>
      <point x="259" y="-302"/>
      <point x="206" y="-302" type="curve" smooth="yes"/>
      <point x="175" y="-302"/>
      <point x="132" y="-293"/>
      <point x="91" y="-277" type="curve"/>
      <point x="91" y="-343" type="line"/>
      <point x="154" y="-374"/>
      <point x="218" y="-389"/>
    </contour>
  </outline>
</glyph>
<glyph name="onesuperior" format="1">
  <advance width="713"/>
  <unicode hex="00B9"/>
  <outline>
    <contour>
      <point x="186" y="454" type="line"/>
      <point x="595" y="454" type="line"/>
      <point x="595" y="556" type="line"/>
      <point x="460" y="556" type="line"/>
      <point x="460" y="1290" type="line"/>
      <point x="182" y="1270" type="line"/>
      <point x="191" y="1165" type="line"/>
      <point x="324" y="1173" type="line"/>
      <point x="324" y="556" type="line"/>
      <point x="186" y="556" type="line"/>
    </contour>
  </outline>
</glyph>
<glyph name="ordmasculine" format="1">
  <advance width="760"/>
  <unicode hex="00BA"/>
  <outline>
    <contour>
      <point x="381" y="632" type="curve" smooth="yes"/>
      <point x="270" y="632"/>
      <point x="190" y="728"/>
      <point x="190" y="842" type="curve" smooth="yes"/>
      <point x="190" y="956"/>
      <point x="269" y="1051"/>
      <point x="381" y="1051" type="curve" smooth="yes"/>
      <point x="492" y="1051"/>
      <point x="569" y="956"/>
      <point x="569" y="842" type="curve" smooth="yes"/>
      <point x="569" y="728"/>
      <point x="492" y="632"/>
    </contour>
    <contour>
      <point x="381" y="514" type="curve" smooth="yes"/>
      <point x="575" y="514"/>
      <point x="712" y="662"/>
      <point x="712" y="842" type="curve" smooth="yes"/>
      <point x="712" y="1025"/>
      <point x="575" y="1173"/>
      <point x="381" y="1173" type="curve" smooth="yes"/>
      <point x="187" y="1172"/>
      <point x="49" y="1024"/>
      <point x="49" y="842" type="curve" smooth="yes"/>
      <point x="49" y="662"/>
      <point x="187" y="514"/>
    </contour>
  </outline>
</glyph>
<glyph name="guillemotright" format="1">
  <advance width="1037"/>
  <unicode hex="00BB"/>
  <outline>
    <contour>
      <point x="118" y="119" type="line"/>
      <point x="256" y="119" type="line"/>
      <point x="539" y="525" type="line"/>
      <point x="256" y="933" type="line"/>
      <point x="118" y="933" type="line"/>
      <point x="294" y="526" type="line"/>
    </contour>
    <contour>
      <point x="514" y="119" type="line"/>
      <point x="651" y="119" type="line"/>
      <point x="934" y="525" type="line"/>
      <point x="651" y="933" type="line"/>
      <point x="514" y="933" type="line"/>
      <point x="689" y="526" type="line"/>
    </contour>
  </outline>
</glyph>
<glyph name="onequarter" format="1">
  <advance width="1826"/>
  <unicode hex="00BC"/>
  <outline>
    <contour>
      <point x="1277" y="0" type="line"/>
      <point x="1646" y="0" type="line"/>
      <point x="1646" y="78" type="line"/>
      <point x="1527" y="78" type="line"/>
      <point x="1527" y="235" type="line"/>
      <point x="1666" y="235" type="line"/>
      <point x="1666" y="322" type="line"/>
      <point x="1527" y="322" type="line"/>
      <point x="1527" y="804" type="line"/>
      <point x="1408" y="804" type="line"/>
      <point x="1043" y="331" type="line"/>
      <point x="1043" y="235" type="line"/>
      <point x="1412" y="235" type="line"/>
      <point x="1412" y="78" type="line"/>
      <point x="1277" y="78" type="line"/>
    </contour>
    <contour>
      <point x="156" y="348" type="line"/>
      <point x="542" y="348" type="line"/>
      <point x="542" y="446" type="line"/>
      <point x="413" y="446" type="line"/>
      <point x="413" y="1152" type="line"/>
      <point x="154" y="1152" type="line"/>
      <point x="154" y="1054" type="line"/>
      <point x="295" y="1054" type="line"/>
      <point x="295" y="446" type="line"/>
      <point x="156" y="446" type="line"/>
    </contour>
    <contour>
      <point x="460" y="0" type="line"/>
      <point x="576" y="0" type="line"/>
      <point x="1355" y="1152" type="line"/>
      <point x="1242" y="1152" type="line"/>
    </contour>
    <contour>
      <point x="1153" y="322" type="line"/>
      <point x="1412" y="671" type="line"/>
      <point x="1412" y="322" type="line"/>
    </contour>
  </outline>
</glyph>
<glyph name="onehalf" format="1">
  <advance width="1838"/>
  <unicode hex="00BD"/>
  <outline>
    <contour>
      <point x="1202" y="0" type="line"/>
      <point x="1706" y="0" type="line"/>
      <point x="1704" y="101" type="line"/>
      <point x="1347" y="101" type="line"/>
      <point x="1596" y="360" type="line" smooth="yes"/>
      <point x="1679" y="445"/>
      <point x="1716" y="522"/>
      <point x="1716" y="596" type="curve" smooth="yes"/>
      <point x="1716" y="701"/>
      <point x="1653" y="825"/>
      <point x="1458" y="825" type="curve" smooth="yes"/>
      <point x="1302" y="825"/>
      <point x="1185" y="740"/>
      <point x="1185" y="587" type="curve" smooth="yes"/>
      <point x="1185" y="575"/>
      <point x="1189" y="532"/>
      <point x="1197" y="502" type="curve"/>
      <point x="1310" y="502" type="line"/>
      <point x="1302" y="529"/>
      <point x="1298" y="556"/>
      <point x="1298" y="581" type="curve" smooth="yes"/>
      <point x="1298" y="680"/>
      <point x="1353" y="728"/>
      <point x="1457" y="728" type="curve" smooth="yes"/>
      <point x="1558" y="728"/>
      <point x="1604" y="677"/>
      <point x="1604" y="595" type="curve" smooth="yes"/>
      <point x="1604" y="548"/>
      <point x="1576" y="496"/>
      <point x="1516" y="433" type="curve" smooth="yes"/>
      <point x="1202" y="101" type="line"/>
    </contour>
    <contour>
      <point x="151" y="348" type="line"/>
      <point x="537" y="348" type="line"/>
      <point x="537" y="446" type="line"/>
      <point x="408" y="446" type="line"/>
      <point x="408" y="1152" type="line"/>
      <point x="149" y="1152" type="line"/>
      <point x="149" y="1054" type="line"/>
      <point x="290" y="1054" type="line"/>
      <point x="290" y="446" type="line"/>
      <point x="151" y="446" type="line"/>
    </contour>
    <contour>
      <point x="453" y="0" type="line"/>
      <point x="569" y="0" type="line"/>
      <point x="1348" y="1152" type="line"/>
      <point x="1235" y="1152" type="line"/>
    </contour>
  </outline>
</glyph>
<glyph name="threequarters" format="1">
  <advance width="1961"/>
  <unicode hex="00BE"/>
  <outline>
    <contour>
      <point x="422" y="331" type="curve" smooth="yes"/>
      <point x="592" y="331"/>
      <point x="703" y="422"/>
      <point x="703" y="577" type="curve" smooth="yes"/>
      <point x="703" y="677"/>
      <point x="635" y="749"/>
      <point x="533" y="771" type="curve"/>
      <point x="622" y="797"/>
      <point x="674" y="865"/>
      <point x="674" y="950" type="curve"/>
      <point x="672" y="1094"/>
      <point x="575" y="1174"/>
      <point x="408" y="1174" type="curve" smooth="yes"/>
      <point x="257" y="1175"/>
      <point x="167" y="1097"/>
      <point x="142" y="973" type="curve"/>
      <point x="245" y="950" type="line"/>
      <point x="259" y="1035"/>
      <point x="316" y="1081"/>
      <point x="410" y="1081" type="curve" smooth="yes"/>
      <point x="505" y="1081"/>
      <point x="559" y="1034"/>
      <point x="559" y="945" type="curve" smooth="yes"/>
      <point x="559" y="855"/>
      <point x="510" y="815"/>
      <point x="359" y="812" type="curve"/>
      <point x="359" y="723" type="line"/>
      <point x="529" y="721"/>
      <point x="585" y="678"/>
      <point x="586" y="570" type="curve" smooth="yes"/>
      <point x="586" y="480"/>
      <point x="526" y="425"/>
      <point x="423" y="425" type="curve" smooth="yes"/>
      <point x="325" y="425"/>
      <point x="263" y="475"/>
      <point x="239" y="566" type="curve"/>
      <point x="141" y="540" type="line"/>
      <point x="166" y="407"/>
      <point x="264" y="331"/>
    </contour>
    <contour>
      <point x="1415" y="0" type="line"/>
      <point x="1784" y="0" type="line"/>
      <point x="1784" y="78" type="line"/>
      <point x="1666" y="78" type="line"/>
      <point x="1666" y="235" type="line"/>
      <point x="1804" y="235" type="line"/>
      <point x="1804" y="322" type="line"/>
      <point x="1666" y="322" type="line"/>
      <point x="1666" y="804" type="line"/>
      <point x="1546" y="804" type="line"/>
      <point x="1181" y="331" type="line"/>
      <point x="1181" y="235" type="line"/>
      <point x="1550" y="235" type="line"/>
      <point x="1550" y="78" type="line"/>
      <point x="1415" y="78" type="line"/>
    </contour>
    <contour>
      <point x="592" y="0" type="line"/>
      <point x="708" y="0" type="line"/>
      <point x="1487" y="1152" type="line"/>
      <point x="1374" y="1152" type="line"/>
    </contour>
    <contour>
      <point x="1292" y="322" type="line"/>
      <point x="1550" y="671" type="line"/>
      <point x="1550" y="322" type="line"/>
    </contour>
  </outline>
</glyph>
<glyph name="AE" format="1">
  <advance width="1822"/>
  <unicode hex="00C6"/>
  <outline>
    <contour>
      <point x="911" y="1152" type="move" name="top"/>
    </contour>
    <contour>
      <point x="43" y="0" type="line"/>
      <point x="555" y="0" type="line"/>
      <point x="555" y="140" type="line"/>
      <point x="407" y="140" type="line"/>
      <point x="513" y="413" type="line"/>
      <point x="883" y="413" type="line"/>
      <point x="910" y="140" type="line"/>
      <point x="771" y="140" type="line"/>
      <point x="772" y="0" type="line"/>
      <point x="1743" y="0" type="line"/>
      <point x="1743" y="355" type="line"/>
      <point x="1575" y="355" type="line"/>
      <point x="1572" y="140" type="line"/>
      <point x="1122" y="140" type="line"/>
      <point x="1084" y="521" type="line"/>
      <point x="1369" y="521" type="line"/>
      <point x="1369" y="393" type="line"/>
      <point x="1464" y="393" type="line"/>
      <point x="1466" y="776" type="line"/>
      <point x="1369" y="776" type="line"/>
      <point x="1369" y="660" type="line"/>
      <point x="1075" y="660" type="line"/>
      <point x="1039" y="1013" type="line"/>
      <point x="1521" y="1013" type="line"/>
      <point x="1526" y="804" type="line"/>
      <point x="1683" y="804" type="line"/>
      <point x="1683" y="1153" type="line"/>
      <point x="400" y="1153" type="line"/>
      <point x="400" y="1013" type="line"/>
      <point x="544" y="1013" type="line"/>
      <point x="181" y="140" type="line"/>
      <point x="43" y="140" type="line"/>
    </contour>
    <contour>
      <point x="565" y="544" type="line"/>
      <point x="746" y="1013" type="line"/>
      <point x="827" y="1013" type="line"/>
      <point x="871" y="544" type="line"/>
    </contour>
  </outline>
</glyph>
<glyph name="multiply" format="1">
  <advance width="949"/>
  <unicode hex="00D7"/>
  <outline>
    <contour>
      <point x="223" y="209" type="line"/>
      <point x="477" y="458" type="line"/>
      <point x="728" y="213" type="line"/>
      <point x="813" y="298" type="line"/>
      <point x="563" y="543" type="line"/>
      <point x="818" y="793" type="line"/>
      <point x="736" y="876" type="line"/>
      <point x="480" y="626" type="line"/>
      <point x="230" y="872" type="line"/>
      <point x="145" y="787" type="line"/>
      <point x="395" y="540" type="line"/>
      <point x="140" y="291" type="line"/>
    </contour>
  </outline>
</glyph>
<glyph name="Oslash" format="1">
  <advance width="1410"/>
  <unicode hex="00D8"/>
  <outline>
    <contour>
      <point x="705" y="1152" type="move" name="top"/>
    </contour>
    <contour>
      <point x="320" y="-124" type="line"/>
      <point x="1176" y="1201" type="line"/>
      <point x="1087" y="1252" type="line"/>
      <point x="231" y="-73" type="line"/>
    </contour>
    <component base="O"/>
  </outline>
</glyph>
<glyph name="germandbls" format="1">
  <advance width="1155"/>
  <unicode hex="00DF"/>
  <outline>
    <contour>
      <point x="55" y="0" type="line"/>
      <point x="517" y="0" type="line"/>
      <point x="517" y="141" type="line"/>
      <point x="401" y="141" type="line"/>
      <point x="401" y="828" type="line" smooth="yes"/>
      <point x="401" y="982"/>
      <point x="480" y="1079"/>
      <point x="606" y="1079" type="curve" smooth="yes"/>
      <point x="709" y="1079"/>
      <point x="773" y="1018"/>
      <point x="773" y="920" type="curve" smooth="yes"/>
      <point x="773" y="801"/>
      <point x="695" y="726"/>
      <point x="570" y="726" type="curve"/>
      <point x="570" y="586" type="line"/>
      <point x="757" y="586"/>
      <point x="874" y="502"/>
      <point x="874" y="368" type="curve" smooth="yes"/>
      <point x="874" y="229"/>
      <point x="771" y="141"/>
      <point x="608" y="141" type="curve"/>
      <point x="608" y="0" type="line"/>
      <point x="903" y="0"/>
      <point x="1066" y="116"/>
      <point x="1089" y="308" type="curve" smooth="yes"/>
      <point x="1129" y="526"/>
      <point x="983" y="647"/>
      <point x="801" y="678" type="curve"/>
      <point x="908" y="721"/>
      <point x="975" y="819"/>
      <point x="975" y="931" type="curve"/>
      <point x="975" y="1117"/>
      <point x="833" y="1233"/>
      <point x="606" y="1233" type="curve" smooth="yes"/>
      <point x="349" y="1233"/>
      <point x="188" y="1075"/>
      <point x="188" y="824" type="curve" smooth="yes"/>
      <point x="188" y="141" type="line"/>
      <point x="55" y="141" type="line"/>
    </contour>
  </outline>
</glyph>
<glyph name="ae" format="1">
  <advance width="1457"/>
  <unicode hex="00E6"/>
  <outline>
    <contour>
      <point x="727" y="804" type="move" name="top"/>
    </contour>
    <contour>
      <point x="370" y="-21" type="curve" smooth="yes"/>
      <point x="482" y="-21"/>
      <point x="600" y="14"/>
      <point x="698" y="103" type="curve"/>
      <point x="772" y="18"/>
      <point x="901" y="-22"/>
      <point x="1035" y="-22" type="curve" smooth="yes"/>
      <point x="1172" y="-22"/>
      <point x="1296" y="35"/>
      <point x="1381" y="129" type="curve"/>
      <point x="1307" y="246" type="line"/>
      <point x="1218" y="170"/>
      <point x="1147" y="132"/>
      <point x="1043" y="132" type="curve" smooth="yes"/>
      <point x="897" y="132"/>
      <point x="805" y="223"/>
      <point x="797" y="363" type="curve"/>
      <point x="1392" y="363" type="line"/>
      <point x="1392" y="640"/>
      <point x="1254" y="826"/>
      <point x="1022" y="826" type="curve" smooth="yes"/>
      <point x="931" y="826"/>
      <point x="795" y="788"/>
      <point x="719" y="672" type="curve"/>
      <point x="669" y="778"/>
      <point x="549" y="826"/>
      <point x="446" y="826" type="curve" smooth="yes"/>
      <point x="331" y="826"/>
      <point x="202" y="790"/>
      <point x="93" y="731" type="curve"/>
      <point x="150" y="604" type="line"/>
      <point x="246" y="646"/>
      <point x="349" y="674"/>
      <point x="416" y="674" type="curve" smooth="yes"/>
      <point x="537" y="674"/>
      <point x="588" y="622"/>
      <point x="592" y="492" type="curve" smooth="yes"/>
      <point x="592" y="485"/>
      <point x="592" y="462"/>
      <point x="592" y="454" type="curve"/>
      <point x="538" y="467"/>
      <point x="479" y="474"/>
      <point x="416" y="474" type="curve" smooth="yes"/>
      <point x="184" y="474"/>
      <point x="65" y="390"/>
      <point x="65" y="225" type="curve" smooth="yes"/>
      <point x="66" y="70"/>
      <point x="208" y="-21"/>
    </contour>
    <contour>
      <point x="389" y="118" type="curve" smooth="yes"/>
      <point x="317" y="118"/>
      <point x="255" y="161"/>
      <point x="255" y="231" type="curve" smooth="yes"/>
      <point x="255" y="325"/>
      <point x="329" y="360"/>
      <point x="424" y="360" type="curve" smooth="yes"/>
      <point x="467" y="360"/>
      <point x="535" y="355"/>
      <point x="593" y="349" type="curve"/>
      <point x="596" y="325"/>
      <point x="625" y="223"/>
      <point x="634" y="202" type="curve"/>
      <point x="570" y="148"/>
      <point x="488" y="118"/>
    </contour>
    <contour>
      <point x="801" y="481" type="line"/>
      <point x="816" y="601"/>
      <point x="894" y="681"/>
      <point x="1014" y="681" type="curve" smooth="yes"/>
      <point x="1135" y="681"/>
      <point x="1193" y="600"/>
      <point x="1206" y="481" type="curve"/>
    </contour>
  </outline>
</glyph>
<glyph name="eth" format="1">
  <advance width="1022"/>
  <unicode hex="00F0"/>
  <outline>
    <contour>
      <point x="517" y="-19" type="curve" smooth="yes"/>
      <point x="767" y="-19"/>
      <point x="937" y="167"/>
      <point x="937" y="402" type="curve" smooth="yes"/>
      <point x="937" y="834"/>
      <point x="642" y="1110"/>
      <point x="269" y="1378" type="curve"/>
      <point x="173" y="1256" type="line"/>
      <point x="407" y="1086"/>
      <point x="614" y="910"/>
      <point x="701" y="711" type="curve"/>
      <point x="674" y="741"/>
      <point x="606" y="780"/>
      <point x="489" y="780" type="curve" smooth="yes"/>
      <point x="281" y="780"/>
      <point x="103" y="642"/>
      <point x="103" y="401" type="curve" smooth="yes"/>
      <point x="103" y="155"/>
      <point x="277" y="-19"/>
    </contour>
    <contour>
      <point x="522" y="135" type="curve" smooth="yes"/>
      <point x="391" y="135"/>
      <point x="289" y="240"/>
      <point x="289" y="396" type="curve" smooth="yes"/>
      <point x="289" y="537"/>
      <point x="384" y="639"/>
      <point x="520" y="639" type="curve" smooth="yes"/>
      <point x="661" y="639"/>
      <point x="756" y="531"/>
      <point x="756" y="392" type="curve" smooth="yes"/>
      <point x="756" y="234"/>
      <point x="657" y="135"/>
    </contour>
    <contour>
      <point x="250" y="870" type="line"/>
      <point x="876" y="1156" type="line"/>
      <point x="819" y="1270" type="line"/>
      <point x="194" y="987" type="line"/>
    </contour>
  </outline>
</glyph>
<glyph name="divide" format="1">
  <advance width="1073"/>
  <unicode hex="00F7"/>
  <outline>
    <contour>
      <point x="443" y="141" type="line"/>
      <point x="630" y="141" type="line"/>
      <point x="630" y="324" type="line"/>
      <point x="443" y="324" type="line"/>
    </contour>
    <contour>
      <point x="120" y="495" type="line"/>
      <point x="953" y="495" type="line"/>
      <point x="953" y="613" type="line"/>
      <point x="120" y="613" type="line"/>
    </contour>
    <contour>
      <point x="443" y="780" type="line"/>
      <point x="630" y="780" type="line"/>
      <point x="630" y="963" type="line"/>
      <point x="443" y="963" type="line"/>
    </contour>
  </outline>
</glyph>
<glyph name="dotlessi" format="1">
  <advance width="649"/>
  <unicode hex="0131"/>
  <outline>
    <contour>
      <point x="327" y="804" type="move" name="top"/>
    </contour>
    <contour>
      <point x="133" y="0" type="line"/>
      <point x="588" y="0" type="line"/>
      <point x="588" y="139" type="line"/>
      <point x="461" y="139" type="line"/>
      <point x="461" y="804" type="line"/>
      <point x="134" y="804" type="line"/>
      <point x="134" y="665" type="line"/>
      <point x="265" y="665" type="line"/>
      <point x="265" y="139" type="line"/>
      <point x="133" y="139" type="line"/>
    </contour>
  </outline>
</glyph>
<glyph name="Lslash" format="1">
  <advance width="1084"/>
  <unicode hex="0141"/>
  <outline>
    <contour>
      <point x="94" y="423" type="line"/>
      <point x="605" y="689" type="line"/>
      <point x="605" y="846" type="line"/>
      <point x="94" y="579" type="line"/>
    </contour>
    <component base="L"/>
  </outline>
</glyph>
<glyph name="lslash" format="1">
  <advance width="597"/>
  <unicode hex="0142"/>
  <outline>
    <contour>
      <point x="61" y="411" type="line"/>
      <point x="566" y="654" type="line"/>
      <point x="566" y="815" type="line"/>
      <point x="61" y="567" type="line"/>
    </contour>
    <component base="l" xOffset="10"/>
  </outline>
</glyph>
<glyph name="OE" format="1">
  <advance width="2042"/>
  <unicode hex="0152"/>
  <outline>
    <contour>
      <point x="786" y="0" type="curve" smooth="yes"/>
      <point x="1929" y="0" type="line"/>
      <point x="1929" y="341" type="line"/>
      <point x="1762" y="341" type="line"/>
      <point x="1762" y="136" type="line"/>
      <point x="1283" y="136" type="line"/>
      <point x="1283" y="526" type="line"/>
      <point x="1591" y="526" type="line"/>
      <point x="1591" y="417" type="line"/>
      <point x="1693" y="417" type="line"/>
      <point x="1693" y="780" type="line"/>
      <point x="1592" y="780" type="line"/>
      <point x="1592" y="669" type="line"/>
      <point x="1283" y="669" type="line"/>
      <point x="1283" y="1016" type="line"/>
      <point x="1760" y="1016" type="line"/>
      <point x="1760" y="817" type="line"/>
      <point x="1926" y="817" type="line"/>
      <point x="1926" y="1152" type="line"/>
      <point x="785" y="1152" type="line" smooth="yes"/>
      <point x="394" y="1152"/>
      <point x="149" y="933"/>
      <point x="149" y="583" type="curve" smooth="yes"/>
      <point x="149" y="225"/>
      <point x="395" y="0"/>
    </contour>
    <contour>
      <point x="1065" y="136" type="line"/>
      <point x="803" y="136" type="line" smooth="yes"/>
      <point x="547" y="136"/>
      <point x="387" y="308"/>
      <point x="387" y="582" type="curve"/>
      <point x="387" y="849"/>
      <point x="547" y="1016"/>
      <point x="801" y="1016" type="curve" smooth="yes"/>
      <point x="1065" y="1016" type="line"/>
    </contour>
  </outline>
</glyph>
<glyph name="oe" format="1">
  <advance width="1623"/>
  <unicode hex="0153"/>
  <outline>
    <contour>
      <point x="491" y="-22" type="curve" smooth="yes"/>
      <point x="642" y="-22"/>
      <point x="769" y="48"/>
      <point x="825" y="160" type="curve"/>
      <point x="883" y="47"/>
      <point x="1012" y="-22"/>
      <point x="1180" y="-22" type="curve" smooth="yes"/>
      <point x="1321" y="-22"/>
      <point x="1444" y="37"/>
      <point x="1530" y="129" type="curve"/>
      <point x="1458" y="245" type="line"/>
      <point x="1369" y="170"/>
      <point x="1281" y="132"/>
      <point x="1188" y="132" type="curve" smooth="yes"/>
      <point x="1038" y="131"/>
      <point x="927" y="221"/>
      <point x="929" y="363" type="curve"/>
      <point x="1542" y="363" type="line"/>
      <point x="1541" y="632"/>
      <point x="1419" y="826"/>
      <point x="1161" y="826" type="curve" smooth="yes"/>
      <point x="1008" y="826"/>
      <point x="880" y="757"/>
      <point x="824" y="651" type="curve"/>
      <point x="769" y="756"/>
      <point x="651" y="826"/>
      <point x="492" y="826" type="curve" smooth="yes"/>
      <point x="234" y="826"/>
      <point x="55" y="655"/>
      <point x="55" y="406" type="curve" smooth="yes"/>
      <point x="55" y="157"/>
      <point x="229" y="-22"/>
    </contour>
    <contour>
      <point x="491" y="130" type="curve" smooth="yes"/>
      <point x="349" y="130"/>
      <point x="259" y="248"/>
      <point x="259" y="406" type="curve" smooth="yes"/>
      <point x="259" y="560"/>
      <point x="352" y="674"/>
      <point x="491" y="674" type="curve" smooth="yes"/>
      <point x="631" y="674"/>
      <point x="723" y="559"/>
      <point x="723" y="407" type="curve" smooth="yes"/>
      <point x="723" y="244"/>
      <point x="631" y="129"/>
    </contour>
    <contour>
      <point x="932" y="481" type="line"/>
      <point x="950" y="606"/>
      <point x="1029" y="681"/>
      <point x="1158" y="681" type="curve" smooth="yes"/>
      <point x="1284" y="681"/>
      <point x="1345" y="598"/>
      <point x="1356" y="481" type="curve"/>
    </contour>
  </outline>
</glyph>
<glyph name="florin" format="1">
  <advance width="1005"/>
  <unicode hex="0192"/>
  <outline>
    <contour>
      <point x="-42" y="-285" type="line"/>
      <point x="-7" y="-296"/>
      <point x="40" y="-303"/>
      <point x="82" y="-302" type="curve" smooth="yes"/>
      <point x="264" y="-300"/>
      <point x="406" y="-189"/>
      <point x="458" y="79" type="curve" smooth="yes"/>
      <point x="577" y="684" type="line"/>
      <point x="788" y="684" type="line"/>
      <point x="807" y="783" type="line"/>
      <point x="596" y="783" type="line"/>
      <point x="628" y="951" type="line" smooth="yes"/>
      <point x="650" y="1066"/>
      <point x="671" y="1146"/>
      <point x="746" y="1146" type="curve" smooth="yes"/>
      <point x="795" y="1146"/>
      <point x="819" y="1089"/>
      <point x="819" y="985" type="curve"/>
      <point x="892" y="985"/>
      <point x="980" y="1014"/>
      <point x="980" y="1052" type="curve"/>
      <point x="980" y="1182"/>
      <point x="889" y="1234"/>
      <point x="747" y="1234" type="curve" smooth="yes"/>
      <point x="552" y="1234"/>
      <point x="457" y="1115"/>
      <point x="422" y="939" type="curve" smooth="yes"/>
      <point x="391" y="783" type="line"/>
      <point x="229" y="783" type="line"/>
      <point x="211" y="684" type="line"/>
      <point x="374" y="684" type="line"/>
      <point x="256" y="80" type="line" smooth="yes"/>
      <point x="221" y="-100"/>
      <point x="211" y="-210"/>
      <point x="81" y="-208" type="curve" smooth="yes"/>
      <point x="49" y="-208"/>
      <point x="9" y="-200"/>
      <point x="-21" y="-192" type="curve"/>
    </contour>
  </outline>
</glyph>
<glyph name="circumflex" format="1">
  <advance width="618"/>
  <unicode hex="02C6"/>
  <outline>
    <contour>
      <point x="308" y="804" type="move" name="_top"/>
    </contour>
    <contour>
      <point x="31" y="894" type="line"/>
      <point x="206" y="894" type="line"/>
      <point x="307" y="1110" type="line"/>
      <point x="408" y="894" type="line"/>
      <point x="588" y="894" type="line"/>
      <point x="443" y="1187" type="line"/>
      <point x="171" y="1187" type="line"/>
    </contour>
  </outline>
</glyph>
<glyph name="caron" format="1">
  <advance width="586"/>
  <unicode hex="02C7"/>
  <outline>
    <contour>
      <point x="294" y="805" type="move" name="_top"/>
    </contour>
    <contour>
      <point x="178" y="902" type="line"/>
      <point x="411" y="902" type="line"/>
      <point x="584" y="1187" type="line"/>
      <point x="426" y="1187" type="line"/>
      <point x="295" y="1009" type="line"/>
      <point x="164" y="1187" type="line"/>
      <point x="7" y="1187" type="line"/>
    </contour>
  </outline>
</glyph>
<glyph name="breve" format="1">
  <advance width="575"/>
  <unicode hex="02D8"/>
  <outline>
    <contour>
      <point x="290" y="805" type="move" name="_top"/>
    </contour>
    <contour>
      <point x="287" y="925" type="curve" smooth="yes"/>
      <point x="444" y="925"/>
      <point x="538" y="1015"/>
      <point x="552" y="1164" type="curve"/>
      <point x="414" y="1164" type="line"/>
      <point x="404" y="1088"/>
      <point x="353" y="1049"/>
      <point x="287" y="1049" type="curve" smooth="yes"/>
      <point x="224" y="1049"/>
      <point x="173" y="1088"/>
      <point x="160" y="1164" type="curve"/>
      <point x="26" y="1164" type="line"/>
      <point x="37" y="1012"/>
      <point x="136" y="925"/>
    </contour>
  </outline>
</glyph>
<glyph name="dotaccent" format="1">
  <advance width="568"/>
  <unicode hex="02D9"/>
  <outline>
    <contour>
      <point x="270" y="805" type="move" name="_top"/>
    </contour>
    <contour>
      <point x="268" y="952" type="curve" smooth="yes"/>
      <point x="333" y="952"/>
      <point x="372" y="999"/>
      <point x="371" y="1051" type="curve"/>
      <point x="371" y="1114"/>
      <point x="324" y="1150"/>
      <point x="268" y="1150" type="curve" smooth="yes"/>
      <point x="213" y="1150"/>
      <point x="164" y="1108"/>
      <point x="165" y="1051" type="curve" smooth="yes"/>
      <point x="165" y="997"/>
      <point x="214" y="952"/>
    </contour>
  </outline>
</glyph>
<glyph name="ring" format="1">
  <advance width="467"/>
  <unicode hex="02DA"/>
  <outline>
    <contour>
      <point x="251" y="809" type="move" name="_top"/>
    </contour>
    <contour>
      <point x="234" y="990" type="curve" smooth="yes"/>
      <point x="180" y="990"/>
      <point x="138" y="1027"/>
      <point x="138" y="1093" type="curve"/>
      <point x="138" y="1157"/>
      <point x="180" y="1192"/>
      <point x="233" y="1192" type="curve" smooth="yes"/>
      <point x="287" y="1192"/>
      <point x="329" y="1157"/>
      <point x="329" y="1093" type="curve" smooth="yes"/>
      <point x="329" y="1026"/>
      <point x="288" y="990"/>
    </contour>
    <contour>
      <point x="233" y="921" type="curve" smooth="yes"/>
      <point x="337" y="921"/>
      <point x="416" y="991"/>
      <point x="416" y="1092" type="curve" smooth="yes"/>
      <point x="416" y="1189"/>
      <point x="339" y="1259"/>
      <point x="233" y="1259" type="curve" smooth="yes"/>
      <point x="128" y="1259"/>
      <point x="51" y="1190"/>
      <point x="51" y="1093" type="curve" smooth="yes"/>
      <point x="51" y="992"/>
      <point x="128" y="921"/>
    </contour>
  </outline>
</glyph>
<glyph name="ogonek" format="1">
  <advance width="487"/>
  <unicode hex="02DB"/>
  <outline>
    <contour>
      <point x="250" y="0" type="move" name="_ogonek"/>
    </contour>
    <contour>
      <point x="306" y="-363" type="curve" smooth="yes"/>
      <point x="344" y="-363"/>
      <point x="394" y="-353"/>
      <point x="438" y="-326" type="curve"/>
      <point x="438" y="-213" type="line"/>
      <point x="409" y="-226"/>
      <point x="380" y="-233"/>
      <point x="352" y="-233" type="curve" smooth="yes"/>
      <point x="289" y="-233"/>
      <point x="253" y="-195"/>
      <point x="253" y="-129" type="curve" smooth="yes"/>
      <point x="253" y="-82"/>
      <point x="270" y="-30"/>
      <point x="298" y="9" type="curve"/>
      <point x="224" y="9" type="line"/>
      <point x="182" y="-20"/>
      <point x="125" y="-114"/>
      <point x="125" y="-192" type="curve" smooth="yes"/>
      <point x="125" y="-298"/>
      <point x="194" y="-363"/>
    </contour>
  </outline>
</glyph>
<glyph name="tilde" format="1">
  <advance width="635"/>
  <unicode hex="02DC"/>
  <outline>
    <contour>
      <point x="323" y="825" type="move" name="_top"/>
    </contour>
    <contour>
      <point x="19" y="942" type="curve"/>
      <point x="92" y="942" type="line"/>
      <point x="100" y="980"/>
      <point x="121" y="1000"/>
      <point x="156" y="1000" type="curve" smooth="yes"/>
      <point x="223" y="1000"/>
      <point x="356" y="935"/>
      <point x="444" y="935" type="curve" smooth="yes"/>
      <point x="546" y="934"/>
      <point x="594" y="1038"/>
      <point x="603" y="1143" type="curve"/>
      <point x="531" y="1143" type="line"/>
      <point x="521" y="1103"/>
      <point x="497" y="1082"/>
      <point x="458" y="1082" type="curve" smooth="yes"/>
      <point x="397" y="1082"/>
      <point x="258" y="1147"/>
      <point x="185" y="1147" type="curve" smooth="yes"/>
      <point x="98" y="1147"/>
      <point x="31" y="1082"/>
    </contour>
  </outline>
</glyph>
<glyph name="hungarumlaut" format="1">
  <advance width="757"/>
  <unicode hex="02DD"/>
  <outline>
    <contour>
      <point x="341" y="805" type="move" name="_top"/>
    </contour>
    <contour>
      <point x="55" y="895" type="line"/>
      <point x="179" y="895" type="line"/>
      <point x="394" y="1206" type="line"/>
      <point x="157" y="1206" type="line"/>
    </contour>
    <contour>
      <point x="376" y="895" type="line"/>
      <point x="499" y="895" type="line"/>
      <point x="714" y="1206" type="line"/>
      <point x="477" y="1206" type="line"/>
    </contour>
  </outline>
</glyph>
<glyph name="uni030F" format="1">
  <advance width="677"/>
  <unicode hex="030F"/>
  <outline>
    <contour>
      <point x="449" y="804" type="move" name="_top"/>
    </contour>
    <contour>
      <point x="200" y="895" type="line"/>
      <point x="334" y="895" type="line"/>
      <point x="233" y="1206" type="line"/>
      <point x="-14" y="1206" type="line"/>
    </contour>
    <contour>
      <point x="521" y="895" type="line"/>
      <point x="654" y="895" type="line"/>
      <point x="553" y="1206" type="line"/>
      <point x="306" y="1206" type="line"/>
    </contour>
  </outline>
</glyph>
<glyph name="uni0311" format="1">
  <advance width="584"/>
  <unicode hex="0311"/>
  <outline>
    <contour>
      <point x="289" y="804" type="move" name="_top"/>
    </contour>
    <contour>
      <point x="44" y="925" type="curve"/>
      <point x="171" y="925" type="line"/>
      <point x="185" y="1006"/>
      <point x="223" y="1046"/>
      <point x="286" y="1046" type="curve" smooth="yes"/>
      <point x="352" y="1046"/>
      <point x="391" y="1006"/>
      <point x="401" y="925" type="curve"/>
      <point x="532" y="925" type="line"/>
      <point x="516" y="1079"/>
      <point x="435" y="1163"/>
      <point x="287" y="1164" type="curve" smooth="yes"/>
      <point x="137" y="1163"/>
      <point x="57" y="1079"/>
    </contour>
  </outline>
</glyph>
<glyph name="uni0326" format="1">
  <advance width="496"/>
  <unicode hex="0326"/>
  <outline>
    <contour>
      <point x="244" y="0" type="move" name="_bot"/>
    </contour>
    <contour>
      <point x="119" y="-621" type="line"/>
      <point x="315" y="-619"/>
      <point x="376" y="-521"/>
      <point x="376" y="-329" type="curve" smooth="yes"/>
      <point x="369" y="-108" type="line"/>
      <point x="123" y="-108" type="line"/>
      <point x="123" y="-349" type="line"/>
      <point x="251" y="-349" type="line"/>
      <point x="251" y="-459"/>
      <point x="215" y="-500"/>
      <point x="119" y="-519" type="curve"/>
    </contour>
  </outline>
</glyph>
<glyph name="pi" format="1">
  <advance width="1147"/>
  <unicode hex="03C0"/>
  <outline>
    <contour>
      <point x="878" y="-16" type="curve" smooth="yes"/>
      <point x="937" y="-16"/>
      <point x="992" y="2"/>
      <point x="1030" y="30" type="curve"/>
      <point x="1030" y="128" type="line"/>
      <point x="1001" y="119"/>
      <point x="968" y="112"/>
      <point x="937" y="112" type="curve" smooth="yes"/>
      <point x="880" y="112"/>
      <point x="838" y="141"/>
      <point x="838" y="226" type="curve" smooth="yes"/>
      <point x="838" y="308"/>
      <point x="843" y="481"/>
      <point x="856" y="632" type="curve"/>
      <point x="1051" y="632" type="line"/>
      <point x="1051" y="804" type="line"/>
      <point x="367" y="804" type="line" smooth="yes"/>
      <point x="186" y="804"/>
      <point x="120" y="697"/>
      <point x="120" y="532" type="curve"/>
      <point x="203" y="532" type="line"/>
      <point x="212" y="590"/>
      <point x="242" y="632"/>
      <point x="303" y="632" type="curve" smooth="yes"/>
      <point x="376" y="632" type="line"/>
      <point x="328" y="293" type="line" smooth="yes"/>
      <point x="304" y="128"/>
      <point x="206" y="82"/>
      <point x="139" y="82" type="curve"/>
      <point x="139" y="0" type="line"/>
      <point x="403" y="0"/>
      <point x="470" y="77"/>
      <point x="479" y="244" type="curve" smooth="yes"/>
      <point x="499" y="632" type="line"/>
      <point x="743" y="632" type="line"/>
      <point x="708" y="477"/>
      <point x="674" y="294"/>
      <point x="674" y="185" type="curve" smooth="yes"/>
      <point x="674" y="52"/>
      <point x="736" y="-16"/>
    </contour>
  </outline>
</glyph>
<glyph name="quoteleft" format="1">
  <advance width="503"/>
  <unicode hex="2018"/>
  <outline>
    <contour>
      <point x="139" y="727" type="line"/>
      <point x="388" y="727" type="line"/>
      <point x="388" y="971" type="line"/>
      <point x="263" y="971" type="line"/>
      <point x="263" y="1080"/>
      <point x="276" y="1132"/>
      <point x="381" y="1141" type="curve"/>
      <point x="381" y="1244" type="line"/>
      <point x="180" y="1242"/>
      <point x="139" y="1147"/>
      <point x="139" y="969" type="curve" smooth="yes"/>
    </contour>
  </outline>
</glyph>
<glyph name="quoteright" format="1">
  <advance width="495"/>
  <unicode hex="2019"/>
  <outline>
    <contour>
      <point x="131" y="695" type="line"/>
      <point x="332" y="697"/>
      <point x="372" y="792"/>
      <point x="373" y="970" type="curve" smooth="yes"/>
      <point x="373" y="1212" type="line"/>
      <point x="124" y="1212" type="line"/>
      <point x="124" y="968" type="line"/>
      <point x="249" y="968" type="line"/>
      <point x="250" y="858"/>
      <point x="236" y="807"/>
      <point x="131" y="798" type="curve"/>
    </contour>
  </outline>
</glyph>
<glyph name="quotesinglbase" format="1">
  <advance width="508"/>
  <unicode hex="201A"/>
  <outline>
    <contour>
      <point x="136" y="-273" type="line"/>
      <point x="337" y="-272"/>
      <point x="377" y="-176"/>
      <point x="378" y="2" type="curve" smooth="yes"/>
      <point x="378" y="244" type="line"/>
      <point x="129" y="244" type="line"/>
      <point x="129" y="0" type="line"/>
      <point x="254" y="0" type="line"/>
      <point x="255" y="-110"/>
      <point x="241" y="-161"/>
      <point x="136" y="-170" type="curve"/>
    </contour>
  </outline>
</glyph>
<glyph name="quotedblleft" format="1">
  <advance width="844"/>
  <unicode hex="201C"/>
  <outline>
    <contour>
      <point x="120" y="727" type="line"/>
      <point x="369" y="727" type="line"/>
      <point x="369" y="971" type="line"/>
      <point x="244" y="971" type="line"/>
      <point x="244" y="1080"/>
      <point x="257" y="1132"/>
      <point x="362" y="1141" type="curve"/>
      <point x="362" y="1244" type="line"/>
      <point x="161" y="1242"/>
      <point x="120" y="1147"/>
      <point x="120" y="969" type="curve" smooth="yes"/>
    </contour>
    <contour>
      <point x="494" y="727" type="line"/>
      <point x="743" y="727" type="line"/>
      <point x="743" y="971" type="line"/>
      <point x="618" y="971" type="line"/>
      <point x="617" y="1081"/>
      <point x="631" y="1132"/>
      <point x="736" y="1141" type="curve"/>
      <point x="736" y="1244" type="line"/>
      <point x="535" y="1242"/>
      <point x="495" y="1147"/>
      <point x="494" y="969" type="curve" smooth="yes"/>
    </contour>
  </outline>
</glyph>
<glyph name="quotedblright" format="1">
  <advance width="836"/>
  <unicode hex="201D"/>
  <outline>
    <contour>
      <point x="121" y="695" type="line"/>
      <point x="322" y="697"/>
      <point x="362" y="792"/>
      <point x="363" y="970" type="curve" smooth="yes"/>
      <point x="363" y="1212" type="line"/>
      <point x="114" y="1212" type="line"/>
      <point x="114" y="968" type="line"/>
      <point x="239" y="968" type="line"/>
      <point x="240" y="858"/>
      <point x="226" y="807"/>
      <point x="121" y="798" type="curve"/>
    </contour>
    <contour>
      <point x="495" y="695" type="line"/>
      <point x="696" y="697"/>
      <point x="737" y="792"/>
      <point x="737" y="970" type="curve" smooth="yes"/>
      <point x="737" y="1212" type="line"/>
      <point x="488" y="1212" type="line"/>
      <point x="488" y="968" type="line"/>
      <point x="613" y="968" type="line"/>
      <point x="613" y="859"/>
      <point x="600" y="807"/>
      <point x="495" y="798" type="curve"/>
    </contour>
  </outline>
</glyph>
<glyph name="quotedblbase" format="1">
  <advance width="898"/>
  <unicode hex="201E"/>
  <outline>
    <contour>
      <point x="136" y="-273" type="line"/>
      <point x="337" y="-272"/>
      <point x="377" y="-176"/>
      <point x="378" y="2" type="curve" smooth="yes"/>
      <point x="378" y="244" type="line"/>
      <point x="129" y="244" type="line"/>
      <point x="129" y="0" type="line"/>
      <point x="254" y="0" type="line"/>
      <point x="255" y="-110"/>
      <point x="241" y="-161"/>
      <point x="136" y="-170" type="curve"/>
    </contour>
    <contour>
      <point x="543" y="-273" type="line"/>
      <point x="744" y="-271"/>
      <point x="785" y="-176"/>
      <point x="785" y="2" type="curve" smooth="yes"/>
      <point x="785" y="244" type="line"/>
      <point x="536" y="244" type="line"/>
      <point x="536" y="0" type="line"/>
      <point x="661" y="0" type="line"/>
      <point x="661" y="-110"/>
      <point x="648" y="-161"/>
      <point x="543" y="-170" type="curve"/>
    </contour>
  </outline>
</glyph>
<glyph name="dagger" format="1">
  <advance width="833"/>
  <unicode hex="2020"/>
  <outline>
    <contour>
      <point x="377" y="-56" type="curve"/>
      <point x="451" y="-56" type="line"/>
      <point x="451" y="272"/>
      <point x="487" y="516"/>
      <point x="520" y="652" type="curve"/>
      <point x="451" y="807" type="line"/>
      <point x="699" y="769" type="line"/>
      <point x="699" y="935" type="line"/>
      <point x="451" y="899" type="line"/>
      <point x="506" y="1195" type="line"/>
      <point x="326" y="1195" type="line"/>
      <point x="377" y="899" type="line"/>
      <point x="130" y="935" type="line"/>
      <point x="130" y="769" type="line"/>
      <point x="377" y="807" type="line"/>
      <point x="312" y="652" type="line"/>
      <point x="342" y="513"/>
      <point x="377" y="268"/>
    </contour>
  </outline>
</glyph>
<glyph name="daggerdbl" format="1">
  <advance width="866"/>
  <unicode hex="2021"/>
  <outline>
    <contour>
      <point x="351" y="-114" type="line"/>
      <point x="518" y="-114" type="line"/>
      <point x="467" y="133" type="line"/>
      <point x="699" y="98" type="line"/>
      <point x="699" y="254" type="line"/>
      <point x="467" y="218" type="line"/>
      <point x="467" y="895" type="line"/>
      <point x="699" y="859" type="line"/>
      <point x="699" y="1015" type="line"/>
      <point x="467" y="980" type="line"/>
      <point x="518" y="1227" type="line"/>
      <point x="351" y="1227" type="line"/>
      <point x="398" y="980" type="line"/>
      <point x="167" y="1015" type="line"/>
      <point x="167" y="859" type="line"/>
      <point x="398" y="895" type="line"/>
      <point x="398" y="218" type="line"/>
      <point x="167" y="254" type="line"/>
      <point x="167" y="98" type="line"/>
      <point x="398" y="133" type="line"/>
    </contour>
  </outline>
</glyph>
<glyph name="bullet" format="1">
  <advance width="938"/>
  <unicode hex="2022"/>
  <outline>
    <contour>
      <point x="468" y="311" type="curve" smooth="yes"/>
      <point x="643" y="311"/>
      <point x="782" y="447"/>
      <point x="782" y="613" type="curve" smooth="yes"/>
      <point x="782" y="782"/>
      <point x="643" y="912"/>
      <point x="468" y="912" type="curve" smooth="yes"/>
      <point x="293" y="912"/>
      <point x="157" y="780"/>
      <point x="157" y="613" type="curve" smooth="yes"/>
      <point x="157" y="448"/>
      <point x="293" y="311"/>
    </contour>
  </outline>
</glyph>
<glyph name="perthousand" format="1">
  <advance width="2454"/>
  <unicode hex="2030"/>
  <outline>
    <contour>
      <point x="2033" y="93" type="curve" smooth="yes"/>
      <point x="1933" y="94"/>
      <point x="1857" y="173"/>
      <point x="1857" y="279" type="curve" smooth="yes"/>
      <point x="1857" y="384"/>
      <point x="1933" y="462"/>
      <point x="2033" y="463" type="curve" smooth="yes"/>
      <point x="2135" y="462"/>
      <point x="2211" y="384"/>
      <point x="2211" y="279" type="curve" smooth="yes"/>
      <point x="2211" y="173"/>
      <point x="2135" y="94"/>
    </contour>
    <contour>
      <point x="2033" y="-22" type="curve" smooth="yes"/>
      <point x="2212" y="-22"/>
      <point x="2346" y="107"/>
      <point x="2346" y="279" type="curve" smooth="yes"/>
      <point x="2346" y="449"/>
      <point x="2212" y="576"/>
      <point x="2033" y="576" type="curve" smooth="yes"/>
      <point x="1855" y="576"/>
      <point x="1722" y="449"/>
      <point x="1722" y="279" type="curve" smooth="yes"/>
      <point x="1722" y="107"/>
      <point x="1855" y="-22"/>
    </contour>
    <component base="percent"/>
  </outline>
</glyph>
<glyph name="fraction" format="1">
  <advance width="796"/>
  <unicode hex="2044"/>
  <outline>
    <contour>
      <point x="65" y="-6" type="line"/>
      <point x="173" y="-35" type="line"/>
      <point x="746" y="1217" type="line"/>
      <point x="639" y="1246" type="line"/>
    </contour>
  </outline>
</glyph>
<glyph name="Euro" format="1">
  <advance width="1336"/>
  <unicode hex="20AC"/>
  <outline>
    <contour>
      <point x="724" y="-20" type="curve" smooth="yes"/>
      <point x="956" y="-18"/>
      <point x="1167" y="85"/>
      <point x="1269" y="346" type="curve"/>
      <point x="1106" y="423" type="line"/>
      <point x="1056" y="224"/>
      <point x="894" y="140"/>
      <point x="718" y="140" type="curve" smooth="yes"/>
      <point x="549" y="140"/>
      <point x="422" y="236"/>
      <point x="364" y="395" type="curve"/>
      <point x="627" y="395" type="line"/>
      <point x="662" y="516" type="line"/>
      <point x="341" y="516" type="line"/>
      <point x="339" y="537"/>
      <point x="338" y="558"/>
      <point x="338" y="579" type="curve" smooth="yes"/>
      <point x="338" y="598"/>
      <point x="339" y="616"/>
      <point x="341" y="634" type="curve"/>
      <point x="627" y="634" type="line"/>
      <point x="662" y="755" type="line"/>
      <point x="363" y="755" type="line"/>
      <point x="420" y="913"/>
      <point x="542" y="1013"/>
      <point x="718" y="1013" type="curve" smooth="yes"/>
      <point x="868" y="1013"/>
      <point x="1012" y="954"/>
      <point x="1087" y="791" type="curve"/>
      <point x="1234" y="791" type="line"/>
      <point x="1234" y="1153" type="line"/>
      <point x="1078" y="1153" type="line"/>
      <point x="1078" y="1025" type="line"/>
      <point x="1000" y="1119"/>
      <point x="871" y="1173"/>
      <point x="727" y="1173" type="curve" smooth="yes"/>
      <point x="417" y="1173"/>
      <point x="202" y="1009"/>
      <point x="134" y="755" type="curve"/>
      <point x="30" y="755" type="line"/>
      <point x="-5" y="634" type="line"/>
      <point x="116" y="634" type="line"/>
      <point x="115" y="615"/>
      <point x="114" y="596"/>
      <point x="114" y="576" type="curve" smooth="yes"/>
      <point x="114" y="556"/>
      <point x="115" y="536"/>
      <point x="116" y="516" type="curve"/>
      <point x="30" y="516" type="line"/>
      <point x="-5" y="395" type="line"/>
      <point x="136" y="395" type="line"/>
      <point x="204" y="144"/>
      <point x="428" y="-19"/>
    </contour>
  </outline>
</glyph>
<glyph name="trademark" format="1">
  <advance width="1716"/>
  <unicode hex="2122"/>
  <outline>
    <contour>
      <point x="735" y="549" type="line"/>
      <point x="998" y="549" type="line"/>
      <point x="998" y="646" type="line"/>
      <point x="918" y="646" type="line"/>
      <point x="918" y="1078" type="line"/>
      <point x="1137" y="549" type="line"/>
      <point x="1187" y="549" type="line"/>
      <point x="1400" y="1079" type="line"/>
      <point x="1400" y="646" type="line"/>
      <point x="1321" y="646" type="line"/>
      <point x="1321" y="549" type="line"/>
      <point x="1608" y="549" type="line"/>
      <point x="1608" y="646" type="line"/>
      <point x="1523" y="646" type="line"/>
      <point x="1523" y="1118" type="line"/>
      <point x="1608" y="1118" type="line"/>
      <point x="1608" y="1215" type="line"/>
      <point x="1339" y="1215" type="line"/>
      <point x="1164" y="763" type="line"/>
      <point x="993" y="1215" type="line"/>
      <point x="735" y="1215" type="line"/>
      <point x="735" y="1118" type="line"/>
      <point x="820" y="1118" type="line"/>
      <point x="820" y="646" type="line"/>
      <point x="735" y="646" type="line"/>
    </contour>
    <contour>
      <point x="241" y="549" type="line"/>
      <point x="563" y="549" type="line"/>
      <point x="563" y="646" type="line"/>
      <point x="468" y="646" type="line"/>
      <point x="468" y="1118" type="line"/>
      <point x="590" y="1118" type="line"/>
      <point x="590" y="955" type="line"/>
      <point x="689" y="955" type="line"/>
      <point x="689" y="1215" type="line"/>
      <point x="114" y="1215" type="line"/>
      <point x="114" y="955" type="line"/>
      <point x="213" y="955" type="line"/>
      <point x="213" y="1118" type="line"/>
      <point x="338" y="1118" type="line"/>
      <point x="338" y="646" type="line"/>
      <point x="241" y="646" type="line"/>
    </contour>
  </outline>
</glyph>
<glyph name="uni2126" format="1">
  <advance width="1360"/>
  <unicode hex="2126"/>
  <outline>
    <contour>
      <point x="191" y="0" type="line"/>
      <point x="604" y="0" type="line"/>
      <point x="604" y="132" type="line"/>
      <point x="403" y="268"/>
      <point x="299" y="474"/>
      <point x="299" y="652" type="curve" smooth="yes"/>
      <point x="299" y="848"/>
      <point x="424" y="1011"/>
      <point x="680" y="1011" type="curve" smooth="yes"/>
      <point x="935" y="1011"/>
      <point x="1061" y="847"/>
      <point x="1061" y="650" type="curve" smooth="yes"/>
      <point x="1061" y="472"/>
      <point x="958" y="267"/>
      <point x="756" y="132" type="curve"/>
      <point x="756" y="0" type="line"/>
      <point x="1169" y="0" type="line"/>
      <point x="1169" y="141" type="line"/>
      <point x="943" y="141" type="line"/>
      <point x="1149" y="260"/>
      <point x="1251" y="462"/>
      <point x="1251" y="657" type="curve" smooth="yes"/>
      <point x="1251" y="923"/>
      <point x="1061" y="1174"/>
      <point x="680" y="1174" type="curve" smooth="yes"/>
      <point x="301" y="1174"/>
      <point x="109" y="919"/>
      <point x="109" y="652" type="curve" smooth="yes"/>
      <point x="109" y="457"/>
      <point x="211" y="255"/>
      <point x="417" y="141" type="curve"/>
      <point x="191" y="141" type="line"/>
    </contour>
  </outline>
</glyph>
<glyph name="estimated" format="1">
  <advance width="961"/>
  <unicode hex="212E"/>
  <outline>
    <contour>
      <point x="512" y="-20" type="curve" smooth="yes"/>
      <point x="657" y="-20"/>
      <point x="778" y="39"/>
      <point x="870" y="134" type="curve"/>
      <point x="838" y="168" type="line"/>
      <point x="746" y="87"/>
      <point x="652" y="38"/>
      <point x="541" y="38" type="curve" smooth="yes"/>
      <point x="368" y="38"/>
      <point x="264" y="181"/>
      <point x="255" y="394" type="curve"/>
      <point x="868" y="394" type="line"/>
      <point x="868" y="660"/>
      <point x="760" y="843"/>
      <point x="500" y="843" type="curve" smooth="yes"/>
      <point x="245" y="843"/>
      <point x="70" y="661"/>
      <point x="70" y="411" type="curve" smooth="yes"/>
      <point x="70" y="147"/>
      <point x="250" y="-20"/>
    </contour>
    <contour>
      <point x="257" y="454" type="line"/>
      <point x="265" y="673"/>
      <point x="387" y="802"/>
      <point x="516" y="802" type="curve" smooth="yes"/>
      <point x="657" y="802"/>
      <point x="771" y="666"/>
      <point x="771" y="454" type="curve"/>
    </contour>
  </outline>
</glyph>
<glyph name="partialdiff" format="1">
  <advance width="954"/>
  <unicode hex="2202"/>
  <outline>
    <contour>
      <point x="387" y="-22" type="curve" smooth="yes"/>
      <point x="744" y="-22"/>
      <point x="874" y="419"/>
      <point x="874" y="717" type="curve" smooth="yes"/>
      <point x="874" y="1039"/>
      <point x="742" y="1230"/>
      <point x="482" y="1230" type="curve" smooth="yes"/>
      <point x="317" y="1230"/>
      <point x="223" y="1157"/>
      <point x="223" y="1052" type="curve" smooth="yes"/>
      <point x="223" y="988"/>
      <point x="272" y="930"/>
      <point x="405" y="930" type="curve"/>
      <point x="405" y="1016"/>
      <point x="462" y="1122"/>
      <point x="574" y="1122" type="curve" smooth="yes"/>
      <point x="706" y="1122"/>
      <point x="775" y="954"/>
      <point x="775" y="722" type="curve" smooth="yes"/>
      <point x="775" y="703"/>
      <point x="773" y="667"/>
      <point x="769" y="645" type="curve"/>
      <point x="761" y="645" type="line"/>
      <point x="722" y="719"/>
      <point x="655" y="758"/>
      <point x="547" y="758" type="curve" smooth="yes"/>
      <point x="222" y="758"/>
      <point x="97" y="453"/>
      <point x="97" y="273" type="curve" smooth="yes"/>
      <point x="97" y="120"/>
      <point x="170" y="-22"/>
    </contour>
    <contour>
      <point x="480" y="89" type="curve" smooth="yes"/>
      <point x="400" y="89"/>
      <point x="354" y="155"/>
      <point x="354" y="261" type="curve" smooth="yes"/>
      <point x="354" y="406"/>
      <point x="430" y="655"/>
      <point x="605" y="655" type="curve" smooth="yes"/>
      <point x="685" y="655"/>
      <point x="726" y="585"/>
      <point x="746" y="505" type="curve"/>
      <point x="714" y="287"/>
      <point x="597" y="89"/>
    </contour>
  </outline>
</glyph>
<glyph name="uni2206" format="1">
  <advance width="1177"/>
  <unicode hex="2206"/>
  <outline>
    <contour>
      <point x="72" y="0" type="line"/>
      <point x="1100" y="0" type="line"/>
      <point x="1100" y="123" type="line"/>
      <point x="717" y="1206" type="line"/>
      <point x="475" y="1206" type="line"/>
      <point x="72" y="109" type="line"/>
    </contour>
    <contour>
      <point x="231" y="141" type="line"/>
      <point x="360" y="508"/>
      <point x="513" y="932"/>
      <point x="533" y="1024" type="curve"/>
      <point x="577" y="834"/>
      <point x="781" y="286"/>
      <point x="827" y="141" type="curve"/>
    </contour>
  </outline>
</glyph>
<glyph name="product" format="1">
  <advance width="1371"/>
  <unicode hex="220F"/>
  <outline>
    <contour>
      <point x="67" y="0" type="line"/>
      <point x="594" y="0" type="line"/>
      <point x="594" y="141" type="line"/>
      <point x="440" y="141" type="line"/>
      <point x="440" y="1012" type="line"/>
      <point x="931" y="1012" type="line"/>
      <point x="931" y="141" type="line"/>
      <point x="777" y="141" type="line"/>
      <point x="777" y="0" type="line"/>
      <point x="1304" y="0" type="line"/>
      <point x="1304" y="141" type="line"/>
      <point x="1150" y="141" type="line"/>
      <point x="1150" y="1012" type="line"/>
      <point x="1304" y="1012" type="line"/>
      <point x="1304" y="1152" type="line"/>
      <point x="67" y="1152" type="line"/>
      <point x="67" y="1012" type="line"/>
      <point x="221" y="1012" type="line"/>
      <point x="221" y="141" type="line"/>
      <point x="67" y="141" type="line"/>
    </contour>
  </outline>
</glyph>
<glyph name="summation" format="1">
  <advance width="1153"/>
  <unicode hex="2211"/>
  <outline>
    <contour>
      <point x="76" y="0" type="line"/>
      <point x="1074" y="0" type="line"/>
      <point x="1074" y="355" type="line"/>
      <point x="908" y="355" type="line"/>
      <point x="908" y="141" type="line"/>
      <point x="353" y="141" type="line"/>
      <point x="733" y="585" type="line"/>
      <point x="733" y="618" type="line"/>
      <point x="417" y="1012" type="line"/>
      <point x="906" y="1012" type="line"/>
      <point x="906" y="804" type="line"/>
      <point x="1072" y="804" type="line"/>
      <point x="1072" y="1152" type="line"/>
      <point x="76" y="1152" type="line"/>
      <point x="76" y="1012" type="line"/>
      <point x="190" y="1012" type="line"/>
      <point x="555" y="562" type="line"/>
      <point x="190" y="141" type="line"/>
      <point x="76" y="141" type="line"/>
    </contour>
  </outline>
</glyph>
<glyph name="radical" format="1">
  <advance width="1185"/>
  <unicode hex="221A"/>
  <outline>
    <contour>
      <point x="502" y="-14" type="line"/>
      <point x="662" y="-14" type="line"/>
      <point x="1124" y="1363" type="line"/>
      <point x="999" y="1363" type="line"/>
      <point x="603" y="194" type="line"/>
      <point x="390" y="691" type="line"/>
      <point x="68" y="691" type="line"/>
      <point x="68" y="568" type="line"/>
      <point x="234" y="568" type="line"/>
    </contour>
  </outline>
</glyph>
<glyph name="infinity" format="1">
  <advance width="1536"/>
  <unicode hex="221E"/>
  <outline>
    <contour>
      <point x="1121" y="185" type="curve" smooth="yes"/>
      <point x="1332" y="185"/>
      <point x="1455" y="389"/>
      <point x="1455" y="606" type="curve" smooth="yes"/>
      <point x="1455" y="840"/>
      <point x="1332" y="1021"/>
      <point x="1123" y="1021" type="curve" smooth="yes"/>
      <point x="983" y="1021"/>
      <point x="874" y="940"/>
      <point x="785" y="771" type="curve"/>
      <point x="692" y="949"/>
      <point x="564" y="1028"/>
      <point x="420" y="1028" type="curve" smooth="yes"/>
      <point x="211" y="1028"/>
      <point x="81" y="839"/>
      <point x="81" y="607" type="curve" smooth="yes"/>
      <point x="81" y="360"/>
      <point x="220" y="192"/>
      <point x="420" y="192" type="curve" smooth="yes"/>
      <point x="550" y="192"/>
      <point x="664" y="281"/>
      <point x="751" y="449" type="curve"/>
      <point x="854" y="270"/>
      <point x="980" y="185"/>
    </contour>
    <contour>
      <point x="428" y="343" type="curve" smooth="yes"/>
      <point x="277" y="343"/>
      <point x="221" y="458"/>
      <point x="221" y="607" type="curve" smooth="yes"/>
      <point x="221" y="753"/>
      <point x="297" y="876"/>
      <point x="416" y="876" type="curve" smooth="yes"/>
      <point x="528" y="876"/>
      <point x="605" y="788"/>
      <point x="679" y="610" type="curve"/>
      <point x="601" y="431"/>
      <point x="518" y="343"/>
    </contour>
    <contour>
      <point x="1119" y="337" type="curve" smooth="yes"/>
      <point x="1007" y="337"/>
      <point x="930" y="429"/>
      <point x="858" y="603" type="curve"/>
      <point x="940" y="784"/>
      <point x="1013" y="870"/>
      <point x="1118" y="870" type="curve" smooth="yes"/>
      <point x="1241" y="870"/>
      <point x="1318" y="745"/>
      <point x="1318" y="605" type="curve" smooth="yes"/>
      <point x="1318" y="466"/>
      <point x="1246" y="337"/>
    </contour>
  </outline>
</glyph>
<glyph name="approxequal" format="1">
  <advance width="1156"/>
  <unicode hex="2248"/>
  <outline>
    <contour>
      <point x="142" y="326" type="line"/>
      <point x="205" y="395"/>
      <point x="295" y="447"/>
      <point x="369" y="447" type="curve" smooth="yes"/>
      <point x="428" y="447"/>
      <point x="471" y="435"/>
      <point x="570" y="392" type="curve" smooth="yes"/>
      <point x="695" y="339"/>
      <point x="740" y="328"/>
      <point x="817" y="328" type="curve" smooth="yes"/>
      <point x="917" y="328"/>
      <point x="1000" y="364"/>
      <point x="1065" y="437" type="curve"/>
      <point x="1065" y="584" type="line"/>
      <point x="1001" y="517"/>
      <point x="913" y="463"/>
      <point x="838" y="463" type="curve" smooth="yes"/>
      <point x="780" y="463"/>
      <point x="736" y="476"/>
      <point x="637" y="519" type="curve" smooth="yes"/>
      <point x="512" y="572"/>
      <point x="467" y="582"/>
      <point x="389" y="582" type="curve" smooth="yes"/>
      <point x="290" y="582"/>
      <point x="208" y="546"/>
      <point x="142" y="474" type="curve"/>
    </contour>
    <contour>
      <point x="142" y="658" type="line"/>
      <point x="205" y="727"/>
      <point x="295" y="779"/>
      <point x="369" y="779" type="curve" smooth="yes"/>
      <point x="428" y="779"/>
      <point x="471" y="767"/>
      <point x="570" y="724" type="curve" smooth="yes"/>
      <point x="695" y="671"/>
      <point x="740" y="660"/>
      <point x="817" y="660" type="curve" smooth="yes"/>
      <point x="917" y="660"/>
      <point x="1000" y="696"/>
      <point x="1065" y="769" type="curve"/>
      <point x="1065" y="916" type="line"/>
      <point x="1001" y="849"/>
      <point x="913" y="795"/>
      <point x="838" y="795" type="curve" smooth="yes"/>
      <point x="780" y="795"/>
      <point x="736" y="808"/>
      <point x="637" y="851" type="curve" smooth="yes"/>
      <point x="512" y="904"/>
      <point x="467" y="914"/>
      <point x="389" y="914" type="curve" smooth="yes"/>
      <point x="290" y="914"/>
      <point x="208" y="878"/>
      <point x="142" y="806" type="curve"/>
    </contour>
  </outline>
</glyph>
<glyph name="lessequal" format="1">
  <advance width="1085"/>
  <unicode hex="2264"/>
  <outline>
    <contour>
      <point x="969" y="258" type="line"/>
      <point x="969" y="420" type="line"/>
      <point x="309" y="711" type="line"/>
      <point x="969" y="1007" type="line"/>
      <point x="969" y="1168" type="line"/>
      <point x="90" y="754" type="line"/>
      <point x="90" y="670" type="line"/>
    </contour>
    <contour>
      <point x="90" y="0" type="line"/>
      <point x="969" y="0" type="line"/>
      <point x="969" y="145" type="line"/>
      <point x="90" y="145" type="line"/>
    </contour>
  </outline>
</glyph>
<glyph name="greaterequal" format="1">
  <advance width="1085"/>
  <unicode hex="2265"/>
  <outline>
    <contour>
      <point x="117" y="258" type="line"/>
      <point x="996" y="670" type="line"/>
      <point x="996" y="754" type="line"/>
      <point x="117" y="1168" type="line"/>
      <point x="117" y="1007" type="line"/>
      <point x="777" y="711" type="line"/>
      <point x="117" y="420" type="line"/>
    </contour>
    <contour>
      <point x="117" y="0" type="line"/>
      <point x="996" y="0" type="line"/>
      <point x="996" y="145" type="line"/>
      <point x="117" y="145" type="line"/>
    </contour>
  </outline>
</glyph>
<glyph name="fi" format="1">
  <advance width="1195"/>
  <unicode hex="FB01"/>
  <outline>
    <contour>
      <point x="87" y="0" type="line"/>
      <point x="579" y="0" type="line"/>
      <point x="579" y="141" type="line"/>
      <point x="411" y="141" type="line"/>
      <point x="411" y="664" type="line"/>
      <point x="837" y="664" type="line"/>
      <point x="837" y="141" type="line"/>
      <point x="692" y="141" type="line"/>
      <point x="692" y="0" type="line"/>
      <point x="1163" y="0" type="line"/>
      <point x="1163" y="141" type="line"/>
      <point x="1033" y="141" type="line"/>
      <point x="1033" y="804" type="line"/>
      <point x="411" y="804" type="line"/>
      <point x="411" y="898" type="line" smooth="yes"/>
      <point x="411" y="1112"/>
      <point x="504" y="1181"/>
      <point x="639" y="1181" type="curve" smooth="yes"/>
      <point x="718" y="1181"/>
      <point x="794" y="1157"/>
      <point x="837" y="1124" type="curve"/>
      <point x="827" y="1108"/>
      <point x="821" y="1089"/>
      <point x="821" y="1069" type="curve" smooth="yes"/>
      <point x="821" y="1008"/>
      <point x="871" y="961"/>
      <point x="934" y="961" type="curve" smooth="yes"/>
      <point x="999" y="961"/>
      <point x="1049" y="1008"/>
      <point x="1049" y="1069" type="curve" smooth="yes"/>
      <point x="1049" y="1204"/>
      <point x="848" y="1294"/>
      <point x="638" y="1294" type="curve" smooth="yes"/>
      <point x="406" y="1294"/>
      <point x="213" y="1184"/>
      <point x="213" y="901" type="curve" smooth="yes"/>
      <point x="213" y="804" type="line"/>
      <point x="83" y="804" type="line"/>
      <point x="83" y="664" type="line"/>
      <point x="213" y="664" type="line"/>
      <point x="213" y="141" type="line"/>
      <point x="87" y="141" type="line"/>
    </contour>
  </outline>
</glyph>
<glyph name="fl" format="1">
  <advance width="1215"/>
  <unicode hex="FB02"/>
  <outline>
    <contour>
      <point x="87" y="0" type="line"/>
      <point x="579" y="0" type="line"/>
      <point x="579" y="141" type="line"/>
      <point x="411" y="141" type="line"/>
      <point x="411" y="664" type="line"/>
      <point x="576" y="664" type="line"/>
      <point x="576" y="804" type="line"/>
      <point x="411" y="804" type="line"/>
      <point x="411" y="948" type="line" smooth="yes"/>
      <point x="411" y="1069"/>
      <point x="556" y="1117"/>
      <point x="680" y="1117" type="curve" smooth="yes"/>
      <point x="775" y="1117"/>
      <point x="859" y="1089"/>
      <point x="859" y="1044" type="curve" smooth="yes"/>
      <point x="859" y="141" type="line"/>
      <point x="708" y="141" type="line"/>
      <point x="708" y="0" type="line"/>
      <point x="1180" y="0" type="line"/>
      <point x="1180" y="141" type="line"/>
      <point x="1057" y="141" type="line"/>
      <point x="1057" y="1124" type="line" smooth="yes"/>
      <point x="1057" y="1204"/>
      <point x="862" y="1277"/>
      <point x="659" y="1277" type="curve" smooth="yes"/>
      <point x="440" y="1277"/>
      <point x="213" y="1193"/>
      <point x="213" y="941" type="curve" smooth="yes"/>
      <point x="213" y="804" type="line"/>
      <point x="83" y="804" type="line"/>
      <point x="83" y="664" type="line"/>
      <point x="213" y="664" type="line"/>
      <point x="213" y="141" type="line"/>
      <point x="87" y="141" type="line"/>
    </contour>
  </outline>
</glyph>
<glyph name="commaaccent" format="1">
  <advance width="416"/>
  <outline>
    <contour>
      <point x="209" y="0" type="move" name="_bot"/>
    </contour>
    <contour>
      <point x="79" y="-619" type="line"/>
      <point x="286" y="-619"/>
      <point x="356" y="-515"/>
      <point x="355" y="-322" type="curve"/>
      <point x="348" y="-98" type="line"/>
      <point x="90" y="-98" type="line"/>
      <point x="90" y="-342" type="line"/>
      <point x="226" y="-342" type="line"/>
      <point x="226" y="-450"/>
      <point x="185" y="-501"/>
      <point x="79" y="-523" type="curve"/>
    </contour>
  </outline>
</glyph>
<glyph name="ffi" format="1">
  <advance width="1760"/>
  <outline>
    <contour>
      <point x="87" y="0" type="line"/>
      <point x="539" y="0" type="line"/>
      <point x="539" y="141" type="line"/>
      <point x="411" y="141" type="line"/>
      <point x="411" y="664" type="line"/>
      <point x="740" y="664" type="line"/>
      <point x="740" y="804" type="line"/>
      <point x="411" y="804" type="line"/>
      <point x="411" y="937" type="line" smooth="yes"/>
      <point x="411" y="1056"/>
      <point x="508" y="1104"/>
      <point x="617" y="1103" type="curve" smooth="yes"/>
      <point x="711" y="1103"/>
      <point x="814" y="1066"/>
      <point x="873" y="1009" type="curve"/>
      <point x="927" y="1117" type="line"/>
      <point x="850" y="1197"/>
      <point x="722" y="1239"/>
      <point x="595" y="1240" type="curve" smooth="yes"/>
      <point x="403" y="1241"/>
      <point x="213" y="1148"/>
      <point x="213" y="951" type="curve" smooth="yes"/>
      <point x="213" y="804" type="line"/>
      <point x="83" y="804" type="line"/>
      <point x="83" y="664" type="line"/>
      <point x="213" y="664" type="line"/>
      <point x="213" y="141" type="line"/>
      <point x="87" y="141" type="line"/>
    </contour>
    <component base="fi" xOffset="552"/>
  </outline>
</glyph>
<glyph name="ffl" format="1">
  <advance width="1807"/>
  <outline>
    <contour>
      <point x="87" y="0" type="line"/>
      <point x="539" y="0" type="line"/>
      <point x="539" y="141" type="line"/>
      <point x="411" y="141" type="line"/>
      <point x="411" y="664" type="line"/>
      <point x="740" y="664" type="line"/>
      <point x="740" y="804" type="line"/>
      <point x="411" y="804" type="line"/>
      <point x="411" y="937" type="line" smooth="yes"/>
      <point x="411" y="1159"/>
      <point x="748" y="1133"/>
      <point x="873" y="1009" type="curve"/>
      <point x="927" y="1117" type="line"/>
      <point x="736" y="1318"/>
      <point x="213" y="1278"/>
      <point x="213" y="951" type="curve" smooth="yes"/>
      <point x="213" y="804" type="line"/>
      <point x="83" y="804" type="line"/>
      <point x="83" y="664" type="line"/>
      <point x="213" y="664" type="line"/>
      <point x="213" y="141" type="line"/>
      <point x="87" y="141" type="line"/>
    </contour>
    <component base="fl" xOffset="563"/>
  </outline>
</glyph>
<glyph name="lc_ascender_stem" format="1">
  <advance width="1220"/>
  <outline>
    <contour>
      <point x="121" y="0" type="line"/>
      <point x="596" y="0" type="line"/>
      <point x="596" y="140" type="line"/>
      <point x="463" y="140" type="line"/>
      <point x="463" y="1174" type="line"/>
      <point x="122" y="1174" type="line"/>
      <point x="122" y="1034" type="line"/>
      <point x="267" y="1034" type="line"/>
      <point x="267" y="140" type="line"/>
      <point x="121" y="140" type="line"/>
    </contour>
  </outline>
</glyph>
<glyph name="lc_bowl_left" format="1">
  <advance width="1259"/>
  <outline>
    <contour>
      <point x="548" y="-22" type="curve" smooth="yes"/>
      <point x="688" y="-22"/>
      <point x="828" y="52"/>
      <point x="908" y="203" type="curve"/>
      <point x="896" y="277" type="line"/>
      <point x="810" y="166"/>
      <point x="698" y="122"/>
      <point x="602" y="122" type="curve" smooth="yes"/>
      <point x="463" y="122"/>
      <point x="359" y="219"/>
      <point x="359" y="400" type="curve" smooth="yes"/>
      <point x="359" y="584"/>
      <point x="462" y="682"/>
      <point x="602" y="682" type="curve" smooth="yes"/>
      <point x="696" y="682"/>
      <point x="805" y="626"/>
      <point x="894" y="527" type="curve"/>
      <point x="914" y="610" type="line"/>
      <point x="823" y="726"/>
      <point x="707" y="826"/>
      <point x="543" y="826" type="curve" smooth="yes"/>
      <point x="321" y="826"/>
      <point x="152" y="666"/>
      <point x="152" y="400" type="curve" smooth="yes"/>
      <point x="152" y="137"/>
      <point x="322" y="-22"/>
    </contour>
  </outline>
</glyph>
<glyph name="lc_bowl_right" format="1">
  <advance width="1259"/>
  <outline>
    <contour>
      <point x="648" y="-22" type="curve" smooth="yes"/>
      <point x="878" y="-22"/>
      <point x="1045" y="134"/>
      <point x="1045" y="415" type="curve" smooth="yes"/>
      <point x="1045" y="679"/>
      <point x="878" y="826"/>
      <point x="663" y="826" type="curve" smooth="yes"/>
      <point x="545" y="826"/>
      <point x="412" y="760"/>
      <point x="310" y="646" type="curve"/>
      <point x="330" y="522" type="line"/>
      <point x="410" y="623"/>
      <point x="513" y="682"/>
      <point x="604" y="682" type="curve" smooth="yes"/>
      <point x="739" y="682"/>
      <point x="838" y="585"/>
      <point x="838" y="402" type="curve" smooth="yes"/>
      <point x="838" y="217"/>
      <point x="735" y="122"/>
      <point x="596" y="122" type="curve" smooth="yes"/>
      <point x="502" y="122"/>
      <point x="401" y="175"/>
      <point x="328" y="262" type="curve"/>
      <point x="317" y="181" type="line"/>
      <point x="402" y="47"/>
      <point x="525" y="-22"/>
    </contour>
  </outline>
</glyph>
<glyph name="lc_descender_stem" format="1">
  <advance width="1206"/>
  <outline>
    <contour>
      <point x="67" y="-325" type="line"/>
      <point x="578" y="-325" type="line"/>
      <point x="578" y="-181" type="line"/>
      <point x="410" y="-181" type="line"/>
      <point x="410" y="591" type="line"/>
      <point x="398" y="804" type="line"/>
      <point x="67" y="804" type="line"/>
      <point x="67" y="664" type="line"/>
      <point x="214" y="664" type="line"/>
      <point x="214" y="-181" type="line"/>
      <point x="67" y="-181" type="line"/>
    </contour>
  </outline>
</glyph>
<glyph name="lc_xheight_curved_stem" format="1">
  <advance width="1236"/>
  <outline>
    <contour>
      <point x="718" y="0" type="line"/>
      <point x="1167" y="0" type="line"/>
      <point x="1167" y="140" type="line"/>
      <point x="1028" y="140" type="line"/>
      <point x="1028" y="546" type="line"/>
      <point x="1028" y="720"/>
      <point x="933" y="826"/>
      <point x="763" y="826" type="curve" smooth="yes"/>
      <point x="652" y="826"/>
      <point x="505" y="763"/>
      <point x="385" y="633" type="curve"/>
      <point x="385" y="488" type="line"/>
      <point x="481" y="613"/>
      <point x="601" y="676"/>
      <point x="707" y="676" type="curve" smooth="yes"/>
      <point x="797" y="676"/>
      <point x="832" y="609"/>
      <point x="832" y="510" type="curve" smooth="yes"/>
      <point x="832" y="140" type="line"/>
      <point x="718" y="140" type="line"/>
    </contour>
  </outline>
</glyph>
<glyph name="uc_main_stem" format="1">
  <advance width="786"/>
  <outline>
    <contour>
      <point x="135" y="0" type="line"/>
      <point x="644" y="0" type="line"/>
      <point x="644" y="140" type="line"/>
      <point x="498" y="140" type="line"/>
      <point x="498" y="1012" type="line"/>
      <point x="644" y="1012" type="line"/>
      <point x="644" y="1152" type="line"/>
      <point x="135" y="1152" type="line"/>
      <point x="135" y="1012" type="line"/>
      <point x="282" y="1012" type="line"/>
      <point x="282" y="140" type="line"/>
      <point x="135" y="140" type="line"/>
    </contour>
  </outline>
</glyph>
